<?xml version="1.0" encoding="UTF-8"?>
<svg version="1.1" xmlns="http://www.w3.org/2000/svg" width="500" height="500">
<path d="M0 0 C13.1720622 -0.06730585 26.34409993 -0.11581468 39.51629639 -0.15002441 C44.58505909 -0.16336179 49.65374943 -0.18254915 54.72247314 -0.2064209 C60.70651727 -0.23371188 66.69040648 -0.24580079 72.67451096 -0.24620056 C74.87610446 -0.2487049 77.07769895 -0.25632516 79.27925491 -0.26942444 C82.29051601 -0.28642686 85.30121066 -0.28473894 88.3125 -0.27832031 C89.18545023 -0.28753887 90.05840046 -0.29675743 90.95780373 -0.30625534 C97.80830453 -0.25935264 102.54759408 0.94793867 107.74511719 5.70703125 C109.01548828 7.15916016 109.01548828 7.15916016 110.31152344 8.640625 C111.17648437 9.61128906 112.04144531 10.58195312 112.93261719 11.58203125 C114.87402344 14.078125 114.87402344 14.078125 114.87402344 16.078125 C115.53402344 16.078125 116.19402344 16.078125 116.87402344 16.078125 C116.87402344 16.738125 116.87402344 17.398125 116.87402344 18.078125 C117.53402344 18.078125 118.19402344 18.078125 118.87402344 18.078125 C120.4383513 19.77086784 121.92730916 21.53382352 123.37402344 23.328125 C124.56511719 24.78992188 124.56511719 24.78992188 125.78027344 26.28125 C127.46150378 28.52707262 128.75538242 30.5247053 129.87402344 33.078125 C130.53402344 33.078125 131.19402344 33.078125 131.87402344 33.078125 C131.87402344 33.738125 131.87402344 34.398125 131.87402344 35.078125 C132.53402344 35.078125 133.19402344 35.078125 133.87402344 35.078125 C135.38183594 36.5390625 135.38183594 36.5390625 136.99902344 38.453125 C137.53785156 39.07960937 138.07667969 39.70609375 138.63183594 40.3515625 C139.87402344 42.078125 139.87402344 42.078125 139.87402344 44.078125 C140.53402344 44.078125 141.19402344 44.078125 141.87402344 44.078125 C144.87402344 47.53966346 144.87402344 47.53966346 144.87402344 50.078125 C145.53402344 50.078125 146.19402344 50.078125 146.87402344 50.078125 C146.87402344 50.738125 146.87402344 51.398125 146.87402344 52.078125 C147.53402344 52.078125 148.19402344 52.078125 148.87402344 52.078125 C148.87402344 52.738125 148.87402344 53.398125 148.87402344 54.078125 C149.53402344 54.078125 150.19402344 54.078125 150.87402344 54.078125 C152.30689523 55.69530811 153.67027093 57.37435872 154.99902344 59.078125 C158.43945084 63.38417276 162.00056416 67.31933434 165.94433594 71.16015625 C169.09298348 74.28968245 172.20524983 77.52532013 174.87402344 81.078125 C174.87402344 81.738125 174.87402344 82.398125 174.87402344 83.078125 C175.53402344 83.078125 176.19402344 83.078125 176.87402344 83.078125 C176.87402344 83.738125 176.87402344 84.398125 176.87402344 85.078125 C177.53402344 85.078125 178.19402344 85.078125 178.87402344 85.078125 C180.66032996 87.08140387 182.30483307 89.07985041 183.93652344 91.203125 C184.39607422 91.77289063 184.855625 92.34265625 185.32910156 92.9296875 C188.13881459 96.56044737 189.70742242 99.339992 189.87402344 104.078125 C187.22493236 109.92820113 183.22179185 115.35554897 178.87402344 120.078125 C178.21402344 120.078125 177.55402344 120.078125 176.87402344 120.078125 C176.44089844 120.9753125 176.44089844 120.9753125 175.99902344 121.890625 C174.87402344 124.078125 174.87402344 124.078125 172.87402344 127.078125 C172.21402344 127.078125 171.55402344 127.078125 170.87402344 127.078125 C170.67550781 127.73039062 170.47699219 128.38265625 170.27246094 129.0546875 C168.28724265 133.34675162 165.43596575 136.76794955 162.49902344 140.453125 C161.87342529 141.24750977 161.24782715 142.04189453 160.60327148 142.86035156 C158.70059996 145.27199193 156.78912006 147.67634372 154.87402344 150.078125 C154.32794434 150.76358398 153.78186523 151.44904297 153.21923828 152.15527344 C151.22633578 154.65408104 149.2317095 157.15138317 147.2265625 159.64038086 C144.70184031 162.7758818 142.20696481 165.92985393 139.75292969 169.12109375 C139.24850342 169.77432617 138.74407715 170.42755859 138.22436523 171.10058594 C137.26095405 172.35112331 136.30254181 173.60553232 135.34985352 174.86425781 C134.23708592 176.30546895 133.06109045 177.69746821 131.87402344 179.078125 C131.21402344 179.078125 130.55402344 179.078125 129.87402344 179.078125 C129.53564453 180.12419922 129.53564453 180.12419922 129.19042969 181.19140625 C127.58681752 184.70793265 125.3303294 187.38342694 122.81152344 190.265625 C119.50627739 193.93685443 119.50627739 193.93685443 116.87402344 198.078125 C116.21402344 198.078125 115.55402344 198.078125 114.87402344 198.078125 C114.60162842 198.65989502 114.3292334 199.24166504 114.04858398 199.84106445 C112.88797485 202.05155322 111.60529503 203.89738185 110.08105469 205.87109375 C109.53618408 206.58015869 108.99131348 207.28922363 108.42993164 208.01977539 C107.85460693 208.76090576 107.27928223 209.50203613 106.68652344 210.265625 C106.10153076 211.02286865 105.51653809 211.7801123 104.91381836 212.56030273 C103.75717807 214.05704633 102.59941299 215.55292151 101.44042969 217.04785156 C100.12421148 218.75384761 98.82518117 220.47308521 97.53027344 222.1953125 C96.92183594 223.00226563 96.31339844 223.80921875 95.68652344 224.640625 C95.17734375 225.32253906 94.66816406 226.00445312 94.14355469 226.70703125 C93.72460938 227.15949219 93.30566406 227.61195313 92.87402344 228.078125 C92.21402344 228.078125 91.55402344 228.078125 90.87402344 228.078125 C90.6484375 228.60277344 90.42285156 229.12742187 90.19042969 229.66796875 C88.40780217 232.93171111 86.12598425 235.74587241 83.81152344 238.640625 C83.32272705 239.25760254 82.83393066 239.87458008 82.33032227 240.51025391 C78.56712283 245.24710557 74.73639243 249.9270738 70.88183594 254.58984375 C68.49232539 257.55116325 66.25429103 260.60304372 64.06542969 263.71484375 C63.67226563 264.16472656 63.27910156 264.61460937 62.87402344 265.078125 C62.21402344 265.078125 61.55402344 265.078125 60.87402344 265.078125 C60.59969482 265.66126465 60.32536621 266.2444043 60.04272461 266.84521484 C56.06419298 274.4465623 49.71877382 281.00958595 44.29003906 287.60546875 C43.73380859 288.28480469 43.17757812 288.96414063 42.60449219 289.6640625 C42.10328857 290.2729834 41.60208496 290.8819043 41.08569336 291.50927734 C39.79397386 293.07757544 39.79397386 293.07757544 38.87402344 295.078125 C38.21402344 295.078125 37.55402344 295.078125 36.87402344 295.078125 C36.53371094 295.8515625 36.53371094 295.8515625 36.18652344 296.640625 C34.39184726 299.97359505 32.37437328 303.22516171 29.87402344 306.078125 C29.21402344 306.078125 28.55402344 306.078125 27.87402344 306.078125 C27.50277344 306.91537109 27.50277344 306.91537109 27.12402344 307.76953125 C25.65011811 310.49165016 23.86853313 312.64714473 21.87402344 315.015625 C19.22303712 318.19508996 16.61964533 321.38167691 14.12792969 324.6875 C13.67869141 325.28312744 13.22945312 325.87875488 12.76660156 326.49243164 C11.88909428 327.66228028 11.01657296 328.83588779 10.14941406 330.01342773 C9.10359438 331.40412293 7.99400368 332.74642826 6.87402344 334.078125 C6.21402344 334.078125 5.55402344 334.078125 4.87402344 334.078125 C4.53371094 335.13 4.53371094 335.13 4.18652344 336.203125 C2.06010937 340.86098438 -0.82871592 344.21328457 -5.12597656 347.078125 C-7.82519531 347.2734375 -7.82519531 347.2734375 -10.81347656 347.203125 C-11.80734375 347.18507813 -12.80121094 347.16703125 -13.82519531 347.1484375 C-14.96408203 347.11363281 -14.96408203 347.11363281 -16.12597656 347.078125 C-16.12597656 346.418125 -16.12597656 345.758125 -16.12597656 345.078125 C-16.70863281 344.8409375 -17.29128906 344.60375 -17.89160156 344.359375 C-20.60150493 342.8054444 -21.99128458 341.05883069 -23.87597656 338.578125 C-24.48957031 337.7840625 -25.10316406 336.99 -25.73535156 336.171875 C-27.12597656 334.078125 -27.12597656 334.078125 -27.12597656 332.078125 C-27.78597656 332.078125 -28.44597656 332.078125 -29.12597656 332.078125 C-29.78597656 330.428125 -30.44597656 328.778125 -31.12597656 327.078125 C-31.78597656 327.078125 -32.44597656 327.078125 -33.12597656 327.078125 C-34.85253906 325.1796875 -34.85253906 325.1796875 -36.75097656 322.703125 C-37.38261719 321.89101563 -38.01425781 321.07890625 -38.66503906 320.2421875 C-40.12597656 318.078125 -40.12597656 318.078125 -40.12597656 316.078125 C-40.78597656 316.078125 -41.44597656 316.078125 -42.12597656 316.078125 C-43.81062048 314.11424139 -45.38143353 312.14026631 -46.93847656 310.078125 C-47.91871227 308.80090369 -48.90055299 307.52491299 -49.88378906 306.25 C-50.40489258 305.57388672 -50.92599609 304.89777344 -51.46289062 304.20117188 C-53.19256722 301.99311732 -54.95994132 299.82125188 -56.74316406 297.65625 C-57.33766357 296.934375 -57.93216309 296.2125 -58.54467773 295.46875 C-59.71330223 294.05446434 -60.88528471 292.64294593 -62.06079102 291.234375 C-62.59148193 290.58984375 -63.12217285 289.9453125 -63.66894531 289.28125 C-64.14356201 288.71051758 -64.61817871 288.13978516 -65.10717773 287.55175781 C-66.12597656 286.078125 -66.12597656 286.078125 -66.12597656 284.078125 C-66.78597656 284.078125 -67.44597656 284.078125 -68.12597656 284.078125 C-69.38769531 282.64453125 -69.38769531 282.64453125 -70.81347656 280.640625 C-73.69563742 276.64829848 -76.71851426 272.79648726 -79.80566406 268.9609375 C-81.12597656 267.078125 -81.12597656 267.078125 -81.12597656 265.078125 C-81.78597656 265.078125 -82.44597656 265.078125 -83.12597656 265.078125 C-87.12597656 260.60753676 -87.12597656 260.60753676 -87.12597656 258.078125 C-87.78597656 258.078125 -88.44597656 258.078125 -89.12597656 258.078125 C-90.72737786 256.17400134 -92.21531948 254.26568788 -93.68847656 252.265625 C-94.58544136 251.07180874 -95.48390875 249.87912013 -96.38378906 248.6875 C-96.83915039 248.08357422 -97.29451172 247.47964844 -97.76367188 246.85742188 C-100.48683647 243.30071515 -103.35808674 239.86695755 -106.21582031 236.41796875 C-111.12597656 230.40327837 -111.12597656 230.40327837 -111.12597656 228.078125 C-111.78597656 228.078125 -112.44597656 228.078125 -113.12597656 228.078125 C-113.12597656 227.418125 -113.12597656 226.758125 -113.12597656 226.078125 C-113.78597656 226.078125 -114.44597656 226.078125 -115.12597656 226.078125 C-116.39868164 224.61816406 -116.39868164 224.61816406 -117.83300781 222.59375 C-121.01308315 218.2094372 -124.37907151 214.0146767 -127.81347656 209.828125 C-137.12597656 198.45440196 -137.12597656 198.45440196 -137.12597656 196.078125 C-137.78597656 196.078125 -138.44597656 196.078125 -139.12597656 196.078125 C-140.82519531 194.20703125 -140.82519531 194.20703125 -142.81347656 191.640625 C-143.89628906 190.25423828 -143.89628906 190.25423828 -145.00097656 188.83984375 C-145.70222656 187.92847656 -146.40347656 187.01710938 -147.12597656 186.078125 C-148.18767739 184.70250783 -149.25014452 183.32748166 -150.31347656 181.953125 C-150.88195312 181.21835937 -151.45042969 180.48359375 -152.03613281 179.7265625 C-154.19234726 176.9940141 -156.38867445 174.29801362 -158.59326172 171.60449219 C-163.96433092 165.03897314 -169.25746199 158.41994545 -174.43847656 151.703125 C-175.2923999 150.60581055 -175.2923999 150.60581055 -176.16357422 149.48632812 C-176.6835498 148.80763672 -177.20352539 148.12894531 -177.73925781 147.4296875 C-178.20114502 146.82979004 -178.66303223 146.22989258 -179.13891602 145.61181641 C-180.12597656 144.078125 -180.12597656 144.078125 -180.12597656 142.078125 C-180.78597656 142.078125 -181.44597656 142.078125 -182.12597656 142.078125 C-183.36279297 140.73291016 -183.36279297 140.73291016 -184.72753906 138.8671875 C-185.21738281 138.19945312 -185.70722656 137.53171875 -186.21191406 136.84375 C-186.71980469 136.13734375 -187.22769531 135.4309375 -187.75097656 134.703125 C-188.52441406 133.65511719 -188.52441406 133.65511719 -189.31347656 132.5859375 C-193.12597656 127.34122851 -193.12597656 127.34122851 -193.12597656 125.078125 C-193.78597656 125.078125 -194.44597656 125.078125 -195.12597656 125.078125 C-195.12597656 124.418125 -195.12597656 123.758125 -195.12597656 123.078125 C-195.78597656 123.078125 -196.44597656 123.078125 -197.12597656 123.078125 C-197.78597656 121.428125 -198.44597656 119.778125 -199.12597656 118.078125 C-199.78597656 118.078125 -200.44597656 118.078125 -201.12597656 118.078125 C-205.78071449 112.81417802 -210.56356229 107.37122048 -210.12597656 100.078125 C-207.92963078 95.70761874 -204.83456662 92.40218016 -201.50097656 88.890625 C-197.9119491 85.28030508 -197.9119491 85.28030508 -195.12597656 81.078125 C-194.46597656 81.078125 -193.80597656 81.078125 -193.12597656 81.078125 C-192.87589844 80.50835937 -192.62582031 79.93859375 -192.36816406 79.3515625 C-190.9449044 76.74672877 -189.27499015 74.87541798 -187.25097656 72.703125 C-183.49304396 68.60794204 -179.84734425 64.44064245 -176.25097656 60.203125 C-171.37591493 54.46858945 -166.34676084 48.90523035 -161.20800781 43.40625 C-159.11034216 41.2659235 -159.11034216 41.2659235 -158.12597656 39.078125 C-157.46597656 39.078125 -156.80597656 39.078125 -156.12597656 39.078125 C-156.12597656 38.418125 -156.12597656 37.758125 -156.12597656 37.078125 C-155.46597656 37.078125 -154.80597656 37.078125 -154.12597656 37.078125 C-153.88878906 36.53671875 -153.65160156 35.9953125 -153.40722656 35.4375 C-151.782499 32.44562363 -149.77578887 29.96653101 -147.62597656 27.328125 C-146.43488281 25.85085937 -146.43488281 25.85085937 -145.21972656 24.34375 C-144.52878906 23.59609375 -143.83785156 22.8484375 -143.12597656 22.078125 C-142.46597656 22.078125 -141.80597656 22.078125 -141.12597656 22.078125 C-141.12597656 21.418125 -141.12597656 20.758125 -141.12597656 20.078125 C-140.46597656 20.078125 -139.80597656 20.078125 -139.12597656 20.078125 C-138.89652344 19.5315625 -138.66707031 18.985 -138.43066406 18.421875 C-136.74584044 15.39524574 -134.6029821 13.11857015 -132.25097656 10.578125 C-131.38730469 9.6396875 -130.52363281 8.70125 -129.63378906 7.734375 C-128.39242187 6.41953125 -128.39242187 6.41953125 -127.12597656 5.078125 C-126.58889069 4.374599 -126.05180481 3.671073 -125.4984436 2.94622803 C-122.08406102 0.25771083 -118.82645283 0.50625048 -114.65869141 0.53222656 C-113.7952927 0.52190022 -112.931894 0.51157387 -112.0423317 0.5009346 C-109.14034249 0.47119885 -106.23904527 0.47002542 -103.33691406 0.46875 C-101.2539241 0.45350644 -99.17094588 0.43657782 -97.08798218 0.41809082 C-91.41173289 0.37308904 -85.7356494 0.35343035 -80.05924988 0.33909607 C-75.3123149 0.32446005 -70.56549788 0.29654809 -65.8186264 0.26845169 C-53.21689173 0.1939677 -40.61520051 0.14829041 -28.01329803 0.11449051 C-18.67544769 0.08848268 -9.3377557 0.04797104 0 0 Z " fill="#5199D6" transform="translate(260.1259765625,85.921875)"/>
<path d="M0 0 C13.1720622 -0.06730585 26.34409993 -0.11581468 39.51629639 -0.15002441 C44.58505909 -0.16336179 49.65374943 -0.18254915 54.72247314 -0.2064209 C60.70651727 -0.23371188 66.69040648 -0.24580079 72.67451096 -0.24620056 C74.87610446 -0.2487049 77.07769895 -0.25632516 79.27925491 -0.26942444 C82.29051601 -0.28642686 85.30121066 -0.28473894 88.3125 -0.27832031 C89.18545023 -0.28753887 90.05840046 -0.29675743 90.95780373 -0.30625534 C97.80830453 -0.25935264 102.54759408 0.94793867 107.74511719 5.70703125 C109.01548828 7.15916016 109.01548828 7.15916016 110.31152344 8.640625 C111.17648437 9.61128906 112.04144531 10.58195312 112.93261719 11.58203125 C114.87402344 14.078125 114.87402344 14.078125 114.87402344 16.078125 C115.53402344 16.078125 116.19402344 16.078125 116.87402344 16.078125 C116.87402344 16.738125 116.87402344 17.398125 116.87402344 18.078125 C117.53402344 18.078125 118.19402344 18.078125 118.87402344 18.078125 C120.4383513 19.77086784 121.92730916 21.53382352 123.37402344 23.328125 C124.56511719 24.78992188 124.56511719 24.78992188 125.78027344 26.28125 C127.46150378 28.52707262 128.75538242 30.5247053 129.87402344 33.078125 C130.53402344 33.078125 131.19402344 33.078125 131.87402344 33.078125 C132.85522807 36.13076164 132.85522807 38.02548836 131.87402344 41.078125 C129.56402344 40.748125 127.25402344 40.418125 124.87402344 40.078125 C123.38902344 42.058125 123.38902344 42.058125 121.87402344 44.078125 C122.28652344 44.59375 122.69902344 45.109375 123.12402344 45.640625 C124.87402344 48.078125 124.87402344 48.078125 126.51074219 51.22265625 C129.13680761 55.8528876 132.73370361 59.42030061 136.43652344 63.203125 C144.02948555 71.10713245 151.26926164 79.19704335 158.03027344 87.83203125 C159.78398105 90.14984809 159.78398105 90.14984809 162.12402344 91.765625 C162.70152344 92.19875 163.27902344 92.631875 163.87402344 93.078125 C163.87402344 93.738125 163.87402344 94.398125 163.87402344 95.078125 C152.66908411 95.26377943 141.46451275 95.40578062 130.25834656 95.49262238 C125.05432675 95.53431051 119.85136189 95.59082099 114.64794922 95.68164062 C109.62281995 95.76879603 104.59870292 95.81644707 99.57287598 95.83714294 C97.65905832 95.85188408 95.74529387 95.8806719 93.83190918 95.92396545 C78.85183191 96.24932334 78.85183191 96.24932334 73.96578979 93.35595703 C71.9407783 91.363837 70.41193267 89.45641535 68.87402344 87.078125 C67.98995874 86.00798753 67.09751591 84.94467933 66.19433594 83.890625 C64.71477367 81.99510039 63.23561542 80.09926036 61.75683594 78.203125 C61.13550781 77.501875 60.51417969 76.800625 59.87402344 76.078125 C59.21402344 76.078125 58.55402344 76.078125 57.87402344 76.078125 C57.54402344 76.738125 57.21402344 77.398125 56.87402344 78.078125 C55.88402344 78.078125 54.89402344 78.078125 53.87402344 78.078125 C53.87402344 78.738125 53.87402344 79.398125 53.87402344 80.078125 C52.2477594 81.46044943 50.58152323 82.79750015 48.87402344 84.078125 C51.4741577 88.16920199 51.4741577 88.16920199 54.62402344 91.828125 C55.87402344 93.078125 55.87402344 93.078125 55.87402344 95.078125 C11.98402344 95.078125 -31.90597656 95.078125 -77.12597656 95.078125 C-74.15597656 91.613125 -74.15597656 91.613125 -71.12597656 88.078125 C-69.8040153 86.43988142 -68.49038615 84.79484839 -67.18847656 83.140625 C-62.68831521 77.49635483 -58.04960836 72.04832012 -53.02050781 66.8671875 C-52.47233398 66.29460205 -51.92416016 65.7220166 -51.359375 65.13208008 C-50.26250168 63.98888934 -49.15531244 62.85549028 -48.03710938 61.7331543 C-45.74232149 59.33050114 -44.23368109 57.66173323 -43.62207031 54.34765625 C-44.37421807 50.96007604 -46.66214868 49.41876148 -49.12597656 47.078125 C-49.12597656 46.088125 -49.12597656 45.098125 -49.12597656 44.078125 C-51.25352626 43.84331837 -51.25352626 43.84331837 -52.67675781 45.6171875 C-53.258125 46.30554688 -53.83949219 46.99390625 -54.43847656 47.703125 C-55.0559375 48.43273437 -55.67339844 49.16234375 -56.30957031 49.9140625 C-56.90898437 50.62820312 -57.50839844 51.34234375 -58.12597656 52.078125 C-58.63257813 52.64789063 -59.13917969 53.21765625 -59.66113281 53.8046875 C-62.22977676 56.62525532 -62.22977676 56.62525532 -63.52050781 60.12890625 C-64.12597656 62.078125 -64.12597656 62.078125 -65.83300781 63.16796875 C-66.5278125 63.44769531 -67.22261719 63.72742188 -67.93847656 64.015625 C-71.75941691 65.73128873 -73.65153483 67.6519749 -76.12597656 71.078125 C-76.78597656 71.078125 -77.44597656 71.078125 -78.12597656 71.078125 C-79.24615029 73.23846004 -80.24042461 75.37139813 -81.12597656 77.640625 C-82.12597656 80.078125 -82.12597656 80.078125 -84.12597656 83.078125 C-84.78597656 83.078125 -85.44597656 83.078125 -86.12597656 83.078125 C-86.33222656 83.75875 -86.53847656 84.439375 -86.75097656 85.140625 C-88.5609112 89.00730354 -91.02442031 92.14230077 -94.12597656 95.078125 C-97.98328115 96.3638932 -101.61778539 96.20923959 -105.63647461 96.19165039 C-106.50498047 96.19179642 -107.37348633 96.19194244 -108.26831055 96.1920929 C-111.14146413 96.19139576 -114.01455304 96.18361261 -116.88769531 96.17578125 C-118.87880925 96.17391637 -120.86992365 96.17249279 -122.86103821 96.17149353 C-128.10370143 96.1676739 -133.34633698 96.15784832 -138.58898926 96.14678955 C-143.93790309 96.13656354 -149.2868214 96.13199335 -154.63574219 96.12695312 C-165.13249914 96.11622558 -175.62923555 96.09915577 -186.12597656 96.078125 C-186.12597656 95.088125 -186.12597656 94.098125 -186.12597656 93.078125 C-187.20324866 91.42309405 -187.20324866 91.42309405 -188.62597656 89.890625 C-189.45097656 88.9625 -190.27597656 88.034375 -191.12597656 87.078125 C-190.13597656 86.088125 -190.13597656 86.088125 -189.12597656 85.078125 C-189.12597656 84.088125 -189.12597656 83.098125 -189.12597656 82.078125 C-186.65097656 81.583125 -186.65097656 81.583125 -184.12597656 81.078125 C-183.46597656 78.108125 -182.80597656 75.138125 -182.12597656 72.078125 C-183.44597656 71.748125 -184.76597656 71.418125 -186.12597656 71.078125 C-185.71347656 70.68882812 -185.30097656 70.29953125 -184.87597656 69.8984375 C-180.54542128 65.70321207 -176.81535095 61.23713243 -173.10253906 56.4921875 C-170.83642758 53.72448612 -168.37207283 51.28834087 -165.79394531 48.81640625 C-163.36169241 46.28162278 -161.3848493 43.4655933 -159.38769531 40.58203125 C-158.97132813 40.08574219 -158.55496094 39.58945313 -158.12597656 39.078125 C-157.46597656 39.078125 -156.80597656 39.078125 -156.12597656 39.078125 C-156.12597656 38.418125 -156.12597656 37.758125 -156.12597656 37.078125 C-155.46597656 37.078125 -154.80597656 37.078125 -154.12597656 37.078125 C-153.88878906 36.53671875 -153.65160156 35.9953125 -153.40722656 35.4375 C-151.782499 32.44562363 -149.77578887 29.96653101 -147.62597656 27.328125 C-146.83191406 26.34328125 -146.03785156 25.3584375 -145.21972656 24.34375 C-144.52878906 23.59609375 -143.83785156 22.8484375 -143.12597656 22.078125 C-142.46597656 22.078125 -141.80597656 22.078125 -141.12597656 22.078125 C-141.12597656 21.418125 -141.12597656 20.758125 -141.12597656 20.078125 C-140.46597656 20.078125 -139.80597656 20.078125 -139.12597656 20.078125 C-138.89652344 19.5315625 -138.66707031 18.985 -138.43066406 18.421875 C-136.74584044 15.39524574 -134.6029821 13.11857015 -132.25097656 10.578125 C-131.38730469 9.6396875 -130.52363281 8.70125 -129.63378906 7.734375 C-128.80621094 6.8578125 -127.97863281 5.98125 -127.12597656 5.078125 C-126.58889069 4.374599 -126.05180481 3.671073 -125.4984436 2.94622803 C-122.08406102 0.25771083 -118.82645283 0.50625048 -114.65869141 0.53222656 C-113.7952927 0.52190022 -112.931894 0.51157387 -112.0423317 0.5009346 C-109.14034249 0.47119885 -106.23904527 0.47002542 -103.33691406 0.46875 C-101.2539241 0.45350644 -99.17094588 0.43657782 -97.08798218 0.41809082 C-91.41173289 0.37308904 -85.7356494 0.35343035 -80.05924988 0.33909607 C-75.3123149 0.32446005 -70.56549788 0.29654809 -65.8186264 0.26845169 C-53.21689173 0.1939677 -40.61520051 0.14829041 -28.01329803 0.11449051 C-18.67544769 0.08848268 -9.3377557 0.04797104 0 0 Z " fill="#5099D6" transform="translate(260.1259765625,85.921875)"/>
<path d="M0 0 C46.86 0 93.72 0 142 0 C141.14976259 4.25118707 140.01393223 8.12974298 138.5625 12.1875 C138.3044458 12.91598145 138.0463916 13.64446289 137.78051758 14.39501953 C135.76983742 20.00646149 133.62718676 25.56170534 131.45996094 31.11425781 C127.04111099 42.43777275 122.97179733 53.81748612 119.1887207 65.36889648 C116.77572538 72.72475271 114.22216907 80.00513239 111.50732422 87.25439453 C109.57558473 92.41636431 107.73443436 97.6022159 105.9375 102.8125 C102.40701918 113.00804004 98.67086181 123.1274877 94.9375 133.25 C94.64003876 134.05684235 94.34257751 134.86368469 94.03610229 135.69497681 C93.15897569 138.07298664 92.28095955 140.45066501 91.40234375 142.828125 C90.97292732 143.99013931 90.97292732 143.99013931 90.53483582 145.17562866 C89.16850116 148.86650731 87.79374714 152.55379704 86.39794922 156.23364258 C83.14190452 164.82222212 80.10594313 173.45547876 77.25 182.1875 C76.48574448 184.51477309 75.72017176 186.84161413 74.953125 189.16796875 C74.62473633 190.17110107 74.29634766 191.1742334 73.95800781 192.20776367 C73.05338965 194.84438903 72.05971671 197.42231867 71 200 C68.24950299 197.24950299 67.4786225 194.01962413 66.27734375 190.40625 C66.01627838 189.63685593 65.75521301 188.86746185 65.48623657 188.07475281 C64.6313137 185.55160723 63.78449836 183.02581557 62.9375 180.5 C62.34367468 178.74367418 61.74918774 176.98757192 61.15405273 175.23168945 C59.97014701 171.73798373 58.78850738 168.24352502 57.60839844 164.74853516 C55.6252638 158.88363406 53.59927509 153.03396146 51.5625 147.1875 C48.88088217 139.4797461 46.23595207 131.76054415 43.6171875 124.03125 C36.06401608 101.57986472 36.06401608 101.57986472 27.8203125 79.37670898 C24.71108834 71.39456309 21.98135851 63.29055932 19.22412109 55.18139648 C14.64479309 41.80163552 9.73999671 28.54208853 4.82592773 15.28222656 C4.50608414 14.41560898 4.18624054 13.54899139 3.85670471 12.65611267 C3.25112347 11.01540247 2.64287047 9.37567526 2.03160095 7.73707581 C0 2.22542014 0 2.22542014 0 0 Z " fill="#F5AED3" transform="translate(179,196)"/>
<path d="M0 0 C29.04 0 58.08 0 88 0 C93.99325604 15.80040229 99.83083261 31.28438783 105.24804688 47.22875977 C108.39451863 56.45434395 111.84808311 65.5397306 115.375 74.625 C120.49081017 87.81099035 125.21991858 101.0944879 129.74804688 114.49291992 C130.23560278 115.93540923 130.72323198 117.37787377 131.2109375 118.8203125 C131.56554047 119.86953636 131.56554047 119.86953636 131.92730713 120.93995667 C134.14453275 127.47537468 136.49963558 133.95803654 138.875 140.4375 C141.81112399 148.45882315 144.4097984 156.50596521 146.74780273 164.72021484 C148.84511566 171.90408055 151.59060756 178.77363688 154.54907227 185.64379883 C154.88221436 186.43294678 155.21535645 187.22209473 155.55859375 188.03515625 C155.86079834 188.7300415 156.16300293 189.42492676 156.47436523 190.14086914 C157 192 157 192 156 195 C149.96147309 187.98566551 144.08316839 180.90261139 138.49072266 173.52661133 C135.74183574 169.91712231 132.8524656 166.50694302 129.82421875 163.1328125 C127.54143715 160.46386442 125.43036824 157.6746761 123.3125 154.875 C119.13771742 149.36224972 114.71886441 144.10865235 110.1875 138.88696289 C107.12808873 135.3502636 104.2291584 131.75936973 101.4765625 127.9765625 C98.14965181 123.52307888 94.53823182 119.28591142 91 115 C85.60739486 108.46350893 80.30567378 101.86718728 75.08642578 95.19213867 C71.5566719 90.68600435 67.94490126 86.25342111 64.3046875 81.8359375 C61.70095805 78.63202634 59.16178474 75.38193017 56.625 72.125 C52.45599157 66.77336199 48.15634798 61.55631322 43.70361328 56.43798828 C41.63707945 54.04068421 39.76329387 51.64447667 38.0078125 49.0078125 C35.83145165 45.74750539 33.38255689 42.82283303 30.8125 39.875 C26.49209368 34.84850438 22.47224964 29.67960443 18.546875 24.3359375 C14.74576276 19.26463601 10.61407413 14.44597945 6.52026367 9.61035156 C5.64204956 8.56186035 5.64204956 8.56186035 4.74609375 7.4921875 C4.21685303 6.86683105 3.6876123 6.24147461 3.14233398 5.59716797 C2 4 2 4 2 2 C1.34 2 0.68 2 0 2 C0 1.34 0 0.68 0 0 Z " fill="#99E0F3" transform="translate(74,195)"/>
<path d="M0 0 C28.71 0 57.42 0 87 0 C84.37549001 3.93676498 81.93358366 7.41589992 78.9375 11 C75.44200554 15.2277748 72.0075254 19.49385799 68.625 23.8125 C67.94123291 24.68539673 67.94123291 24.68539673 67.24365234 25.57592773 C66.3081364 26.77109108 65.37291803 27.96648741 64.43798828 29.16210938 C61.98372629 32.29889788 59.52296832 35.4305791 57.0625 38.5625 C56.61406738 39.13395752 56.16563477 39.70541504 55.70361328 40.29418945 C53.81624689 42.69774948 51.92309577 45.09594142 50.01171875 47.48046875 C48.48821172 49.38855037 46.9809739 51.30536922 45.484375 53.234375 C40.81522502 59.24400368 36.13977862 65.16670971 30.94921875 70.7421875 C28.69337226 73.35517201 26.66502307 76.0974125 24.6081543 78.86816406 C22.0190402 82.30040094 19.28950077 85.61453753 16.5625 88.9375 C12.51578509 93.89217195 8.50600493 98.86551207 4.6015625 103.93359375 C0.83379919 108.79492738 -3.04670475 113.56842875 -6.8984375 118.36328125 C-9.81628987 122.00166452 -12.72696552 125.64456883 -15.59765625 129.3203125 C-20.79965818 135.97994716 -26.08964645 142.52988446 -31.53125 148.99609375 C-34.12284122 152.14946978 -36.6000423 155.37090211 -39.0625 158.625 C-42.73499875 163.47406911 -46.65533252 167.99387919 -50.77734375 172.46484375 C-54.03918765 176.18529487 -56.91867374 180.16419768 -59.84765625 184.1484375 C-62.71001595 187.94067449 -65.79473758 191.49585458 -69 195 C-70.48613476 191.13360952 -69.45769815 188.76996837 -68.0078125 184.99609375 C-67.328396 183.19434692 -67.328396 183.19434692 -66.63525391 181.35620117 C-66.38946594 180.71862885 -66.14367798 180.08105652 -65.89044189 179.42416382 C-64.58108064 176.02578617 -63.30671529 172.61433958 -62.03125 169.203125 C-61.77090973 168.50889938 -61.51056946 167.81467377 -61.24234009 167.09941101 C-58.85210343 160.68727774 -56.72266886 154.20071746 -54.625 147.6875 C-50.76968935 135.81673367 -46.28457381 124.24263041 -41.60400391 112.6784668 C-38.56437598 105.14512289 -35.82074426 97.59118476 -33.30029297 89.86328125 C-31.18547321 83.47941286 -28.73205041 77.2176148 -26.32470703 70.93978882 C-20.55288473 55.88067719 -14.94818502 40.76628017 -9.48265076 25.59353638 C-6.38797031 17.03317169 -3.19742224 8.5264593 0 0 Z " fill="#F4AED3" transform="translate(338,196)"/>
<path d="M0 0 C10.93533955 -0.39621791 21.86893829 -0.69708145 32.81002808 -0.88080692 C37.89255548 -0.96905547 42.9701293 -1.08841176 48.04980469 -1.2824707 C83.60620296 -2.60566795 83.60620296 -2.60566795 92.08081055 3.58520508 C95.614764 6.93566049 98.25109122 10.5757859 100.65913391 14.7930603 C102.92144949 18.51661936 105.88859059 21.60301528 108.8125 24.8125 C109.86728857 26.0356181 110.91863337 27.26172391 111.96484375 28.4921875 C115.73411119 32.87741134 119.65451417 37.11648282 123.578125 41.36328125 C126.18746464 44.20409457 128.73084055 47.09393576 131.2578125 50.0078125 C134.06673825 53.21981279 136.93684473 56.37650666 139.796875 59.54296875 C141.80370265 61.78107973 143.78176809 64.04047577 145.75 66.3125 C147.71443922 68.57845779 149.71192446 70.73594749 151.875 72.8125 C154 75 154 75 155 78 C143.79506067 78.18565443 132.59048931 78.32765562 121.38432312 78.41449738 C116.18030331 78.45618551 110.97733845 78.51269599 105.77392578 78.60351562 C100.74879652 78.69067103 95.72467948 78.73832207 90.69885254 78.75901794 C88.78503488 78.77375908 86.87127044 78.8025469 84.95788574 78.84584045 C69.98782865 79.1709807 69.98782865 79.1709807 65.10096741 76.29225159 C63.06726278 74.29551895 61.54287928 72.38658569 60 70 C59.02819847 68.79374697 58.04914567 67.59324739 57.05859375 66.40234375 C56.18059502 65.25066195 55.30688249 64.09569982 54.4375 62.9375 C51.05475925 58.53014549 47.64887936 54.40910044 43.6171875 50.5703125 C38.98612345 46.07348219 34.88965119 41.1222911 31.3359375 35.73828125 C29.43929298 33.27042508 27.21266007 31.18662878 25 29 C19.8121378 23.42012892 14.73082165 17.74340538 9.73828125 11.98828125 C7.02877107 8.88908871 4.26438407 5.83896758 1.50390625 2.78515625 C0 1 0 1 0 0 Z " fill="#99E1F4" transform="translate(269,103)"/>
<path d="M0 0 C1.24445641 -0.00087616 1.24445641 -0.00087616 2.51405334 -0.00177002 C5.2523097 0.00101348 7.98947323 0.03211745 10.72753906 0.06347656 C12.62753708 0.07093802 14.5275428 0.0766314 16.42755127 0.08062744 C21.42544852 0.09589128 26.42287992 0.13517964 31.42059326 0.17944336 C36.52154234 0.22037984 41.62256678 0.23863499 46.72363281 0.25878906 C56.73034777 0.30167309 66.73671716 0.36993358 76.74316406 0.45410156 C74.49894016 3.87319677 72.43961661 6.98744968 69.43066406 9.76660156 C66.90346008 12.21399911 64.72179058 14.69784642 62.61816406 17.51660156 C59.44744134 21.70852553 55.96880215 25.51022735 52.36816406 29.32910156 C46.86898884 35.16672381 41.75463378 41.18976441 36.74316406 47.45410156 C34.79498492 49.8557362 32.82758696 52.16632033 30.74316406 54.45410156 C30.08316406 54.45410156 29.42316406 54.45410156 28.74316406 54.45410156 C28.52015625 54.98390625 28.29714844 55.51371094 28.06738281 56.05957031 C26.281035 59.28975086 23.94861024 61.9786088 21.55566406 64.76660156 C21.09869141 65.30994141 20.64171875 65.85328125 20.17089844 66.41308594 C19.24128473 67.50515641 18.29079812 68.5798378 17.31930542 69.63482666 C15.718647 71.38572668 15.718647 71.38572668 14.60244751 73.29205322 C12.83407253 75.7274707 11.39054555 76.97168667 8.74316406 78.45410156 C2.24569824 79.46099216 -4.19440474 79.26871273 -10.75292969 79.13769531 C-12.67104787 79.12462908 -14.58918952 79.11466975 -16.50733948 79.10768127 C-21.54016348 79.08103629 -26.5715588 79.0123449 -31.6038208 78.93475342 C-36.74512406 78.86296708 -41.88665965 78.83113694 -47.02832031 78.79589844 C-57.10511769 78.72097025 -67.18085772 78.60159965 -77.25683594 78.45410156 C-76.3061173 77.34100269 -75.3548358 76.22838456 -74.40332031 75.1159668 C-73.87363647 74.49632553 -73.34395264 73.87668427 -72.79821777 73.23826599 C-70.82766027 70.95732657 -68.79574041 68.73649574 -66.75683594 66.51660156 C-64.0128445 63.4922358 -61.45252826 60.45680348 -59.06933594 57.14160156 C-56.96878479 54.24903933 -54.78242153 52.18001173 -51.94433594 49.97753906 C-48.77810073 47.11913228 -46.26462326 43.66655968 -43.60449219 40.34472656 C-39.15844117 34.87038754 -34.35557092 29.71708537 -29.56152344 24.54785156 C-24.23524977 18.79704008 -19.11590105 12.96679643 -14.22949219 6.82910156 C-13.57851562 6.04535156 -12.92753906 5.26160156 -12.25683594 4.45410156 C-11.72644714 3.75448303 -11.19605835 3.0548645 -10.64959717 2.33404541 C-7.26013968 -0.32898242 -4.12878782 -0.07608164 0 0 Z " fill="#D0B3E7" transform="translate(153.2568359375,102.5458984375)"/>
<path d="M0 0 C9.37075304 3.79547663 16.82233761 16.32397814 23 24 C25.3544469 26.90771118 27.71327076 29.71750119 30.3828125 32.34765625 C32.81998511 34.81756699 34.97016589 37.34642583 37.125 40.0625 C40.45314042 44.18121198 43.89359914 48.12808952 47.5 52 C51.85915233 56.68008085 55.95240963 61.51415891 59.9296875 66.52734375 C62.02763584 69.11702483 62.02763584 69.11702483 64.7578125 71.69140625 C67 74 67 74 67 76 C23.11 76 -20.78 76 -66 76 C-64.02 73.69 -62.04 71.38 -60 69 C-58.67803874 67.36175642 -57.36440959 65.71672339 -56.0625 64.0625 C-51.59988466 58.46532144 -46.95971679 53.08758734 -42.0703125 47.859375 C-41.54469727 47.29581299 -41.01908203 46.73225098 -40.47753906 46.15161133 C-39.43918201 45.0409616 -38.39708543 43.93379151 -37.35058594 42.83081055 C-33.85786181 39.09952807 -30.93410184 35.18437204 -28 31 C-26.3563186 29.31066078 -24.6857124 27.64740076 -23 26 C-17.4532051 20.0523625 -12.21137327 13.90018464 -7.140625 7.54296875 C-4.89340195 4.87336619 -2.49900496 2.43347161 0 0 Z " fill="#F4AED3" transform="translate(249,105)"/>
<path d="M0 0 C1 2 1 2 1 5 C0.34 5.66 -0.32 6.32 -1 7 C38.93 7.33 78.86 7.66 120 8 C119.01 5.03 119.01 5.03 118 2 C119.1725131 2.95117134 120.33787015 3.91117009 121.5 4.875 C122.47453125 5.67550781 122.47453125 5.67550781 123.46875 6.4921875 C124.22671875 7.23855469 124.22671875 7.23855469 125 8 C125 8.66 125 9.32 125 10 C81.11 10 37.22 10 -8 10 C-6.02 7.69 -4.04 5.38 -2 3 C-1.34 2.01 -0.68 1.02 0 0 Z " fill="#CBB7E2" transform="translate(191,171)"/>
<path d="M0 0 C5.07387228 -0.00589134 10.14770251 -0.01635481 15.22155762 -0.03076172 C21.21234954 -0.04728147 27.20306637 -0.05366714 33.19388008 -0.05195045 C35.39918971 -0.05278966 37.60450092 -0.05694722 39.80979729 -0.06464195 C42.82354097 -0.07439719 45.83702138 -0.07166829 48.85076904 -0.06567383 C49.72731329 -0.07129585 50.60385754 -0.07691788 51.50696373 -0.08271027 C56.17191515 -0.05861609 59.90995412 0.38343841 64.29876709 2.17724609 C64.29876709 2.50724609 64.29876709 2.83724609 64.29876709 3.17724609 C-10.94123291 3.17724609 -86.18123291 3.17724609 -163.70123291 3.17724609 C-163.37123291 2.51724609 -163.04123291 1.85724609 -162.70123291 1.17724609 C-108.46876728 0.55240065 -54.2362421 0.06291826 0 0 Z " fill="#7BA6CA" transform="translate(299.70123291015625,85.82275390625)"/>
<path d="M0 0 C46.86 0 93.72 0 142 0 C141.10366373 4.48168137 139.84587973 8.59330207 138.3125 12.875 C138.05065918 13.61226318 137.78881836 14.34952637 137.51904297 15.10913086 C134.87333155 22.48450448 131.97504267 29.75228967 129 37 C128.67 37 128.34 37 128 37 C128 35.02 128 33.04 128 31 C128.66 31 129.32 31 130 31 C130.66 27.7 131.32 24.4 132 21 C132.66 21 133.32 21 134 21 C134.1546875 19.8553125 134.1546875 19.8553125 134.3125 18.6875 C135.24133042 13.70559136 136.62116443 8.87362005 138 4 C138.66 4 139.32 4 140 4 C140 3.01 140 2.02 140 1 C94.46 1 48.92 1 2 1 C1.67 1.99 1.34 2.98 1 4 C0.67 2.68 0.34 1.36 0 0 Z " fill="#DEB7E2" transform="translate(179,196)"/>
<path d="M0 0 C1.32 0.66 2.64 1.32 4 2 C1.57710297 5.93299205 -1.24959888 9.33975834 -5.91671753 10.46011353 C-11.78393533 11.16023785 -17.69909593 10.91621287 -23.59375 10.78125 C-25.51043326 10.76631379 -27.42714724 10.75493329 -29.34387207 10.74694824 C-34.3686681 10.71652239 -39.39158981 10.63804329 -44.41564941 10.54931641 C-49.55027922 10.4672176 -54.68521437 10.4308856 -59.8203125 10.390625 C-69.88102815 10.30503854 -79.94035773 10.16864863 -90 10 C-88.35 8.35 -86.7 6.7 -85 5 C-85 5.99 -85 6.98 -85 8 C-74.49055025 7.93884514 -63.98135 7.86177984 -53.47217083 7.76428509 C-48.59254793 7.71951878 -43.71300973 7.6802766 -38.83325195 7.65356445 C-34.12578424 7.62759376 -29.41864139 7.58723598 -24.71137428 7.53681374 C-22.91364387 7.52010271 -21.11585721 7.50861488 -19.31805992 7.50238609 C-16.80373283 7.49279082 -14.29024486 7.4647877 -11.77612305 7.43237305 C-11.02949905 7.43380814 -10.28287506 7.43524323 -9.5136261 7.4367218 C-5.53084159 7.37419407 -5.53084159 7.37419407 -2.05696106 5.60969543 C-0.84535745 3.76448762 -0.37350697 2.16634042 0 0 Z " fill="#C4B7EE" transform="translate(166,171)"/>
<path d="M0 0 C1.24423737 -0.00065712 1.24423737 -0.00065712 2.51361084 -0.00132751 C5.25711554 0.00076358 8.00001018 0.02410957 10.7434082 0.04760742 C12.64483812 0.05320224 14.54627235 0.05747288 16.44770813 0.06047058 C21.45374478 0.07192835 26.45952056 0.10140359 31.4654541 0.13458252 C36.57304353 0.16526329 41.68067508 0.17897166 46.78833008 0.1940918 C56.81123119 0.22627236 66.83393863 0.27748001 76.85668945 0.34057617 C75.86668945 1.99057617 74.87668945 3.64057617 73.85668945 5.34057617 C72.86668945 4.35057617 72.86668945 4.35057617 71.85668945 3.34057617 C69.31363459 3.13179882 66.87852529 3.04691533 64.33349609 3.05004883 C63.55773727 3.0433316 62.78197845 3.03661438 61.98271179 3.0296936 C59.41069181 3.01064936 56.83893185 3.00678628 54.2668457 3.00463867 C52.48327017 2.99821544 50.69969571 2.99148745 48.91612244 2.98446655 C45.17436275 2.97247788 41.43269551 2.96878738 37.69091797 2.9699707 C32.89089272 2.97017404 28.09145858 2.94286422 23.29157352 2.90842628 C19.60702276 2.88621402 15.92261556 2.8821314 12.23800468 2.88319016 C10.46812336 2.88082592 8.69823856 2.87195635 6.92842293 2.85652542 C4.45495048 2.83697839 1.98276958 2.84265793 -0.49072266 2.85473633 C-1.5919194 2.83787781 -1.5919194 2.83787781 -2.71536255 2.82067871 C-4.99187253 2.80394828 -4.99187253 2.80394828 -8.14331055 3.34057617 C-10.02216026 5.25554216 -10.02216026 5.25554216 -11.14331055 7.34057617 C-11.80331055 7.34057617 -12.46331055 7.34057617 -13.14331055 7.34057617 C-10.11212764 0.5787066 -7.24228612 -0.09963184 0 0 Z " fill="#B8BAF4" transform="translate(153.143310546875,102.659423828125)"/>
<path d="M0 0 C1.3721192 3.70472184 0.4863484 5.44927883 -1 9 C-1.3813074 11.32597511 -1.72460254 13.65912158 -2 16 C0.64 16 3.28 16 6 16 C0.9176061 24.42607411 -5.5272491 31.63698401 -12 39 C-13.64461384 34.94838933 -12.24959222 32.17436568 -10.76171875 28.22265625 C-10.52089066 27.57429306 -10.28006256 26.92592987 -10.03193665 26.25791931 C-9.26059137 24.18881722 -8.47425795 22.12578415 -7.6875 20.0625 C-7.16893785 18.67810257 -6.65134893 17.29334017 -6.13476562 15.90820312 C-4.14305367 10.58412769 -2.1287155 5.2710754 0 0 Z " fill="#E9B2D8" transform="translate(281,352)"/>
<path d="M0 0 C2.14399719 0.12875366 2.14399719 0.12875366 4.14399719 2.12875366 C3.81399719 3.11875366 3.48399719 4.10875366 3.14399719 5.12875366 C3.14399719 4.46875366 3.14399719 3.80875366 3.14399719 3.12875366 C-25.23600281 3.12875366 -53.61600281 3.12875366 -82.85600281 3.12875366 C-80.03428253 0.30703339 -77.32729182 0.82133473 -73.54814148 0.80990601 C-72.79510239 0.79986038 -72.04206329 0.78981476 -71.26620483 0.77946472 C-68.76880163 0.74849796 -66.27150663 0.73155358 -63.77397156 0.71469116 C-62.04001949 0.69598117 -60.30607654 0.67640788 -58.57214355 0.65600586 C-53.99891069 0.6045594 -49.42564798 0.56501687 -44.85227966 0.52786255 C-40.20956379 0.48801221 -35.56697567 0.43675867 -30.92436218 0.38656616 C-24.13363929 0.31470008 -17.34289896 0.24738945 -10.55204773 0.18881226 C-9.84380859 0.18260361 -9.13556946 0.17639496 -8.40586853 0.16999817 C-4.20178218 0.13645879 -4.20178218 0.13645879 0 0 Z " fill="#578FCA" transform="translate(226.8560028076172,99.87124633789063)"/>
<path d="M0 0 C28.71 0 57.42 0 87 0 C85.68 1.98 84.36 3.96 83 6 C82.505 5.01 82.505 5.01 82 4 C82.33 3.01 82.66 2.02 83 1 C55.94 1 28.88 1 1 1 C0.34 3.97 -0.32 6.94 -1 10 C-1.71940233 11.97053682 -2.43912055 13.94157174 -3.21484375 15.890625 C-4.10913105 18.29318789 -4.80304497 20.72079004 -5.5 23.1875 C-6.87644734 27.87895141 -8.50534017 31.50534017 -12 35 C-11.39221105 30.6050913 -10.30563188 26.72934836 -8.75 22.578125 C-8.3065625 21.38832031 -7.863125 20.19851562 -7.40625 18.97265625 C-6.9421875 17.74417969 -6.478125 16.51570313 -6 15.25 C-5.53077839 13.99366562 -5.06202402 12.73715663 -4.59375 11.48046875 C-1.17911255 2.35822511 -1.17911255 2.35822511 0 0 Z " fill="#DCB7E1" transform="translate(338,196)"/>
<path d="M0 0 C0.495 1.485 0.495 1.485 1 3 C-0.3125 5.1875 -0.3125 5.1875 -2 7 C-2.66 7 -3.32 7 -4 7 C-4.20625 7.680625 -4.4125 8.36125 -4.625 9.0625 C-6.43493463 12.92917854 -8.89844375 16.06417577 -12 19 C-15.85730459 20.2857682 -19.49180882 20.13111459 -23.51049805 20.11352539 C-24.37900391 20.11367142 -25.24750977 20.11381744 -26.14233398 20.1139679 C-29.01548757 20.11327076 -31.88857648 20.10548761 -34.76171875 20.09765625 C-36.75283269 20.09579137 -38.74394708 20.09436779 -40.73506165 20.09336853 C-45.97772486 20.0895489 -51.22036041 20.07972332 -56.4630127 20.06866455 C-61.81192653 20.05843854 -67.16084483 20.05386835 -72.50976562 20.04882812 C-83.00652258 20.03810058 -93.50325899 20.02103077 -104 20 C-102 18 -102 18 -98.56188965 17.82678223 C-97.05342839 17.85157791 -95.54512668 17.8874364 -94.03710938 17.93164062 C-93.21407318 17.9474115 -92.39103699 17.96318237 -91.5430603 17.97943115 C-89.75107752 18.01388635 -87.9591678 18.05231365 -86.16734314 18.0941925 C-82.35011335 18.17808835 -78.53272313 18.2252275 -74.71491241 18.27425385 C-67.60498857 18.36572792 -60.49613728 18.47091165 -53.38769531 18.64453125 C-48.44459984 18.76384181 -43.50291328 18.83339987 -38.55854797 18.87089539 C-36.67971998 18.89428622 -34.80102188 18.93576721 -32.92301941 18.99617004 C-22.32159249 19.54254504 -22.32159249 19.54254504 -12.68432617 15.87426758 C-10.14063007 13.37627905 -8.05873129 10.90419666 -6 8 C-5.34866089 7.1697229 -4.69732178 6.3394458 -4.02624512 5.48400879 C-2.62229283 3.69084817 -1.28935735 1.87638183 0 0 Z " fill="#5A87C3" transform="translate(178,162)"/>
<path d="M0 0 C3.875 1.75 3.875 1.75 5 4 C4.278125 3.731875 3.55625 3.46375 2.8125 3.1875 C-0.17658195 2.66510227 -0.17658195 2.66510227 -2.5 5.0625 C-3.325 6.031875 -4.15 7.00125 -5 8 C-5.43425293 8.5045874 -5.86850586 9.0091748 -6.31591797 9.52905273 C-12.14850683 15.61055499 -12.14850683 15.61055499 -15 23 C-14.34 23 -13.68 23 -13 23 C-14.29299694 25.88437779 -15.65941363 27.87219421 -18 30 C-18.66 29.01 -19.32 28.02 -20 27 C-20.721875 27.763125 -21.44375 28.52625 -22.1875 29.3125 C-24.69790967 31.71133591 -26.96808302 33.35410221 -30 35 C-28.73252964 31.88893639 -27.00749896 29.90420721 -24.60546875 27.59375 C-18.30899678 21.34323768 -12.66671331 14.47104614 -7.140625 7.54296875 C-4.89340195 4.87336619 -2.49900496 2.43347161 0 0 Z " fill="#DFB5DE" transform="translate(249,105)"/>
<path d="M0 0 C0.33 0.99 0.66 1.98 1 3 C28.06 3 55.12 3 83 3 C83 3.33 83 3.66 83 4 C54.62 4 26.24 4 -3 4 C-2.01 2.68 -1.02 1.36 0 0 Z " fill="#A9BCF6" transform="translate(79,177)"/>
<path d="M0 0 C2.9719385 1.12451727 5.33440687 2.22293791 8 4 C8.99 3.67 9.98 3.34 11 3 C11.19335938 3.71027344 11.38671875 4.42054688 11.5859375 5.15234375 C11.84632813 6.07144531 12.10671875 6.99054688 12.375 7.9375 C12.63023437 8.85402344 12.88546875 9.77054687 13.1484375 10.71484375 C13.76660104 13.16745087 13.76660104 13.16745087 16 14 C18.28003407 17.28324906 19.43518386 20.04628701 20 24 C16.74483572 20.83525695 13.67991207 17.67247209 11 14 C11 13.34 11 12.68 11 12 C10.34 12 9.68 12 9 12 C9 11.34 9 10.68 9 10 C8.34 10 7.68 10 7 10 C5.52734375 8.3203125 5.52734375 8.3203125 3.9375 6.125 C3.41027344 5.40570313 2.88304687 4.68640625 2.33984375 3.9453125 C1 2 1 2 0 0 Z " fill="#65A4D6" transform="translate(138,302)"/>
<path d="M0 0 C2.77419691 2.77419691 3.60565959 6.07502594 4.85546875 9.7109375 C5.12136307 10.47548248 5.38725739 11.24002747 5.66120911 12.02774048 C6.22146201 13.64568973 6.77856698 15.26473194 7.33276367 16.88476562 C8.18317775 19.36240732 9.05096705 21.83349718 9.91992188 24.3046875 C10.4620125 25.877234 11.00306296 27.45013953 11.54296875 29.0234375 C11.80434128 29.76210052 12.06571381 30.50076355 12.33500671 31.2618103 C13.58177344 34.96138824 14.17525571 37.27794578 13 41 C10.9375 39.4375 10.9375 39.4375 9 37 C9.25 33.25 9.25 33.25 10 30 C9.34 30 8.68 30 8 30 C8 28.35 8 26.7 8 25 C7.34 25 6.68 25 6 25 C5.67 25.66 5.34 26.32 5 27 C5.02320313 26.31292969 5.04640625 25.62585938 5.0703125 24.91796875 C5.08835938 24.01691406 5.10640625 23.11585938 5.125 22.1875 C5.15980469 20.84751953 5.15980469 20.84751953 5.1953125 19.48046875 C5.18285827 16.74597286 5.18285827 16.74597286 3 14 C2.46083854 11.3397977 2.26629902 8.70737337 2 6 C1.34 6 0.68 6 0 6 C0 4.02 0 2.04 0 0 Z " fill="#6591CB" transform="translate(211,287)"/>
<path d="M0 0 C0.66 0.33 1.32 0.66 2 1 C1.49572053 5.41244536 -0.01327751 7.74974317 -3 11 C-6.42094242 13.28062828 -7.68187222 13.21925007 -11.6875 13.125 C-13.17830078 13.09792969 -13.17830078 13.09792969 -14.69921875 13.0703125 C-15.45847656 13.04710937 -16.21773437 13.02390625 -17 13 C-17 12.34 -17 11.68 -17 11 C-17.61875 10.7525 -18.2375 10.505 -18.875 10.25 C-21.35068687 8.79371361 -21.95125002 7.62187494 -23 5 C-21.1875 5.25 -21.1875 5.25 -19 6 C-18.5875 6.680625 -18.175 7.36125 -17.75 8.0625 C-16.20988791 10.18771247 -16.20988791 10.18771247 -14.03515625 10.26171875 C-12.02157477 10.25110233 -10.0092942 10.131757 -8 10 C-8 9.34 -8 8.68 -8 8 C-6.02 8 -4.04 8 -2 8 C-1.855625 6.865625 -1.71125 5.73125 -1.5625 4.5625 C-1 1 -1 1 0 0 Z " fill="#84AFD0" transform="translate(261,420)"/>
<path d="M0 0 C0.94219304 3.36821772 0.91715991 5.55642517 0.1875 9 C0.01605469 9.845625 -0.15539062 10.69125 -0.33203125 11.5625 C-0.97664732 13.9147832 -1.82997719 15.8673002 -3 18 C-2.01 18.33 -1.02 18.66 0 19 C-2.64 21.97 -5.28 24.94 -8 28 C-9.11509206 23.53963176 -8.73718404 22.50124108 -7.12890625 18.359375 C-6.51499023 16.75449219 -6.51499023 16.75449219 -5.88867188 15.1171875 C-5.45103516 14.00601562 -5.01339844 12.89484375 -4.5625 11.75 C-3.9118457 10.06003906 -3.9118457 10.06003906 -3.24804688 8.3359375 C-2.17509988 5.5533497 -1.09212022 2.7751063 0 0 Z " fill="#D5B5E1" transform="translate(277,363)"/>
<path d="M0 0 C0.7936496 -0.009104 1.58729919 -0.01820801 2.40499878 -0.02758789 C3.45083885 -0.04202942 3.45083885 -0.04202942 4.51780701 -0.0567627 C7.36969242 0.09812695 9.83308523 0.97190551 12.45748901 2.04858398 C12.45748901 2.37858398 12.45748901 2.70858398 12.45748901 3.04858398 C-17.24251099 2.55358398 -17.24251099 2.55358398 -47.54251099 2.04858398 C-47.54251099 1.71858398 -47.54251099 1.38858398 -47.54251099 1.04858398 C-41.29864365 0.90486228 -35.05474744 0.76249239 -28.81082153 0.62133789 C-26.68971946 0.57320078 -24.56862552 0.52470377 -22.44754028 0.47583008 C-19.38677032 0.40536838 -16.32597279 0.33623028 -13.26516724 0.26733398 C-12.32729874 0.24546021 -11.38943024 0.22358643 -10.42314148 0.2010498 C-6.9489168 0.12378651 -3.47443579 0.06639182 0 0 Z " fill="#77A3C9" transform="translate(351.5425109863281,85.951416015625)"/>
<path d="M0 0 C0.66 0 1.32 0 2 0 C0.83348574 5.92863717 -0.75519358 11.38798394 -3 17 C-5.3129482 14.6870518 -5.49580975 13.52095125 -6.125 10.375 C-6.29257813 9.55773437 -6.46015625 8.74046875 -6.6328125 7.8984375 C-6.75398437 7.27195312 -6.87515625 6.64546875 -7 6 C-6.34 6 -5.68 6 -5 6 C-4.67 4.68 -4.34 3.36 -4 2 C-2.68 2.99 -1.36 3.98 0 5 C0 3.35 0 1.7 0 0 Z " fill="#EBB3D9" transform="translate(253,379)"/>
<path d="M0 0 C1.40898627 3.76250073 0.5539836 5.97056279 -0.87109375 9.640625 C-1.28037109 10.71054687 -1.68964844 11.78046875 -2.11132812 12.8828125 C-2.7677832 14.54957031 -2.7677832 14.54957031 -3.4375 16.25 C-3.87126953 17.37664062 -4.30503906 18.50328125 -4.75195312 19.6640625 C-5.82490012 22.4466503 -6.90787978 25.2248937 -8 28 C-8.33 28 -8.66 28 -9 28 C-9 26.02 -9 24.04 -9 22 C-8.34 22 -7.68 22 -7 22 C-7 21.01 -7 20.02 -7 19 C-7.66 19 -8.32 19 -9 19 C-8.8125 16.125 -8.8125 16.125 -8 13 C-5.4375 11.625 -5.4375 11.625 -3 11 C-3.0928125 9.948125 -3.0928125 9.948125 -3.1875 8.875 C-2.95743899 5.34739788 -1.70799432 3.06015649 0 0 Z " fill="#DEB4DC" transform="translate(290,278)"/>
<path d="M0 0 C1 2 1 2 0.61035156 3.76831055 C0.3728418 4.46738525 0.13533203 5.16645996 -0.109375 5.88671875 C-0.36976563 6.66080078 -0.63015625 7.43488281 -0.8984375 8.23242188 C-1.17945313 9.04259766 -1.46046875 9.85277344 -1.75 10.6875 C-2.01554687 11.47833984 -2.28109375 12.26917969 -2.5546875 13.08398438 C-4.16787751 17.82566666 -5.96592576 22.42333296 -8 27 C-9.18414294 23.44757118 -8.69535532 22.30169438 -7.5625 18.8125 C-7.27503906 17.91144531 -6.98757813 17.01039063 -6.69140625 16.08203125 C-6.46324219 15.39496094 -6.23507812 14.70789063 -6 14 C-6.66 14 -7.32 14 -8 14 C-7.25 11.0625 -7.25 11.0625 -6 8 C-3.875 7.125 -3.875 7.125 -2 7 C-2.04125 6.21625 -2.0825 5.4325 -2.125 4.625 C-2 2 -2 2 0 0 Z " fill="#6191CF" transform="translate(305,282)"/>
<path d="M0 0 C1.15651647 3.91311611 0.60849271 6.03988624 -0.6875 9.9375 C-1.24244141 11.64292969 -1.24244141 11.64292969 -1.80859375 13.3828125 C-2.39833984 15.17332031 -2.39833984 15.17332031 -3 17 C-3.7551799 19.43590016 -4.50544019 21.87333274 -5.25 24.3125 C-5.83333333 26.20833333 -6.41666667 28.10416667 -7 30 C-7.66 30 -8.32 30 -9 30 C-9.495 32.475 -9.495 32.475 -10 35 C-11.32784412 31.01646765 -10.05036338 28.49172504 -8.69140625 24.70703125 C-8.44583481 24.00100266 -8.20026337 23.29497406 -7.94725037 22.56755066 C-7.16080661 20.31279578 -6.36184404 18.06270986 -5.5625 15.8125 C-5.02716453 14.2847959 -4.49264905 12.75680418 -3.95898438 11.22851562 C-2.64881528 7.48227317 -1.32740152 3.74016943 0 0 Z " fill="#6C8FC9" transform="translate(264,353)"/>
<path d="M0 0 C0.33 1.32 0.66 2.64 1 4 C0.01 4.33 -0.98 4.66 -2 5 C-2 5.99 -2 6.98 -2 8 C-2.99 8.33 -3.98 8.66 -5 9 C-6.81104764 10.05967596 -6.81104764 10.05967596 -8 12 C-8.04092937 14.33297433 -8.04241723 16.66705225 -8 19 C-8.66 19.66 -9.32 20.32 -10 21 C-11.35616438 14.71232877 -11.35616438 14.71232877 -9.78125 11.5625 C-7.94437434 8.91997712 -5.97844958 6.5664938 -3.8125 4.1875 C-3.09707031 3.39730469 -2.38164063 2.60710937 -1.64453125 1.79296875 C-1.10183594 1.20128906 -0.55914062 0.60960937 0 0 Z " fill="#80B1D6" transform="translate(61,172)"/>
<path d="M0 0 C0 4.05585689 -1.50556967 4.96236265 -4.25 7.875 C-10.04343221 13.33896288 -10.04343221 13.33896288 -13.375 20.1875 C-13.58125 20.785625 -13.7875 21.38375 -14 22 C-17.0625 23.25 -17.0625 23.25 -20 24 C-16.04632947 18.44935667 -11.71992625 13.37333144 -7.125 8.34375 C-4.66214499 5.6273658 -2.31735929 2.84063397 0 0 Z " fill="#6191CC" transform="translate(210,126)"/>
<path d="M0 0 C0.66 0.33 1.32 0.66 2 1 C0.6393319 7.75523606 -1.28709973 14.08575595 -3.625 20.5625 C-3.94984375 21.47580078 -4.2746875 22.38910156 -4.609375 23.33007812 C-5.40153629 25.55511941 -6.1984659 27.77832175 -7 30 C-7.33 30 -7.66 30 -8 30 C-8 27.69 -8 25.38 -8 23 C-7.34 23 -6.68 23 -6 23 C-5.87625 22.3090625 -5.7525 21.618125 -5.625 20.90625 C-4.6910684 16.56346807 -3.28176611 12.38673453 -1.9375 8.15625 C-1.13106544 5.44125365 -0.49882747 2.78512003 0 0 Z " fill="#D3B7E3" transform="translate(305,232)"/>
<path d="M0 0 C0.33 0.99 0.66 1.98 1 3 C-0.3125 5.1875 -0.3125 5.1875 -2 7 C-2.66 7 -3.32 7 -4 7 C-4.20625 7.680625 -4.4125 8.36125 -4.625 9.0625 C-6.45408866 12.97009851 -9.10279034 15.83857939 -12 19 C-13.32 18.67 -14.64 18.34 -16 18 C-15.34773437 17.3709375 -14.69546875 16.741875 -14.0234375 16.09375 C-8.84672978 11.02393595 -4.10725299 5.97722184 0 0 Z " fill="#5D94CD" transform="translate(178,162)"/>
<path d="M0 0 C0.98526354 3.47588057 0.85577054 5.70361404 0.0625 9.25 C-0.13214844 10.14203125 -0.32679688 11.0340625 -0.52734375 11.953125 C-0.68332031 12.62859375 -0.83929688 13.3040625 -1 14 C-1.99 14.33 -2.98 14.66 -4 15 C-4.71706982 16.98248715 -5.38290413 18.98415349 -6 21 C-6.66 21.66 -7.32 22.32 -8 23 C-7.26905294 17.94514073 -5.31619096 13.40096821 -3.4375 8.6875 C-3.10814453 7.85154297 -2.77878906 7.01558594 -2.43945312 6.15429688 C-1.63001123 4.10136454 -0.81676543 2.05002714 0 0 Z " fill="#D6B5DE" transform="translate(301,297)"/>
<path d="M0 0 C2 2 2 2 2.0625 5.0625 C1.19613937 10.3273069 -2.60563561 14.09160654 -6 18 C-6.66 16.68 -7.32 15.36 -8 14 C-7.34 13.01 -6.68 12.02 -6 11 C-5.34 11 -4.68 11 -4 11 C-3.67 10.34 -3.34 9.68 -3 9 C-2.34 9 -1.68 9 -1 9 C-1.020625 7.88625 -1.04125 6.7725 -1.0625 5.625 C-1 2 -1 2 0 0 Z " fill="#8BB6D5" transform="translate(448,184)"/>
<path d="M0 0 C-1.34929464 3.83663072 -3.07751025 6.65172569 -5.625 9.8125 C-6.25664062 10.60269531 -6.88828125 11.39289063 -7.5390625 12.20703125 C-8.02117187 12.79871094 -8.50328125 13.39039063 -9 14 C-9.87840996 10.90279155 -9.99435406 9.09354597 -9 6 C-8.01 6.33 -7.02 6.66 -6 7 C-6 6.34 -6 5.68 -6 5 C-5.34 5 -4.68 5 -4 5 C-4.33 3.68 -4.66 2.36 -5 1 C-2 0 -2 0 0 0 Z " fill="#80B1DA" transform="translate(311,363)"/>
<path d="M0 0 C1.32 0 2.64 0 4 0 C5.81831905 1.91323946 7.29019995 3.68716322 8.8125 5.8125 C9.44188477 6.63331055 9.44188477 6.63331055 10.08398438 7.47070312 C11.26953125 9.08203125 11.26953125 9.08203125 13 12 C12.67 12.99 12.34 13.98 12 15 C10.32731078 13.04653795 8.66178419 11.08770186 7 9.125 C6.28457031 8.29162109 6.28457031 8.29162109 5.5546875 7.44140625 C2 3.2265625 2 3.2265625 2 1 C1.34 0.67 0.68 0.34 0 0 Z " fill="#8AB5D6" transform="translate(121,281)"/>
<path d="M0 0 C0.99 0.66 1.98 1.32 3 2 C-1.95 8.435 -1.95 8.435 -7 15 C-7.33 13.68 -7.66 12.36 -8 11 C-7.34 11 -6.68 11 -6 11 C-6 10.34 -6 9.68 -6 9 C-5.34 9 -4.68 9 -4 9 C-3.896875 8.2575 -3.79375 7.515 -3.6875 6.75 C-2.95746496 3.82985982 -1.93210602 2.26812446 0 0 Z " fill="#DFB3E0" transform="translate(397,226)"/>
<path d="M0 0 C0 4.77102901 -2.29852214 7.28141292 -5.5625 10.625 C-6.366875 11.40875 -7.17125 12.1925 -8 13 C-8.99 14.485 -8.99 14.485 -10 16 C-10.99 15.67 -11.98 15.34 -13 15 C-11.20942753 12.87406947 -9.41759447 10.74922444 -7.625 8.625 C-7.11710937 8.02171875 -6.60921875 7.4184375 -6.0859375 6.796875 C-5.59609375 6.21679688 -5.10625 5.63671875 -4.6015625 5.0390625 C-4.15119629 4.50490723 -3.70083008 3.97075195 -3.23681641 3.42041016 C-2.20600388 2.23658322 -1.10995961 1.10995961 0 0 Z " fill="#BFB7F1" transform="translate(120,131)"/>
<path d="M0 0 C0.66 0 1.32 0 2 0 C0.33846988 5.85659906 -1.47041916 11.4590134 -4 17 C-5.46116377 14.07767246 -5.65999005 11.23009453 -6 8 C-5.67 7.01 -5.34 6.02 -5 5 C-2.9375 4.3125 -2.9375 4.3125 -1 4 C-0.67 2.68 -0.34 1.36 0 0 Z " fill="#5F92CD" transform="translate(311,264)"/>
<path d="M0 0 C1 2 1 2 1 6 C-0.44286917 8.24675342 -2.19379986 10.01317985 -4 12 C-4.99 11.67 -5.98 11.34 -7 11 C-7 11.66 -7 12.32 -7 13 C-7.66 13 -8.32 13 -9 13 C-7.50923566 9.7173068 -5.61379679 7.06922559 -3.375 4.25 C-2.74335938 3.45078125 -2.11171875 2.6515625 -1.4609375 1.828125 C-0.97882813 1.22484375 -0.49671875 0.6215625 0 0 Z " fill="#5F91CA" transform="translate(404,222)"/>
<path d="M0 0 C1 3 1 3 0 6 C-0.66 6 -1.32 6 -2 6 C-2 6.66 -2 7.32 -2 8 C-2.66 8 -3.32 8 -4 8 C-4 8.66 -4 9.32 -4 10 C-4.99 10 -5.98 10 -7 10 C-7.28875 10.639375 -7.5775 11.27875 -7.875 11.9375 C-9 14 -9 14 -11 15 C-9.52834523 11.77707606 -7.69245806 9.15273288 -5.5 6.375 C-4.8915625 5.59898437 -4.283125 4.82296875 -3.65625 4.0234375 C-2 2 -2 2 0 0 Z " fill="#6292CB" transform="translate(422,200)"/>
<path d="M0 0 C0.66 0.33 1.32 0.66 2 1 C0.63629701 3.99220268 -0.94908083 6.29026529 -3.125 8.75 C-3.93324219 9.67039063 -3.93324219 9.67039063 -4.7578125 10.609375 C-5.16773438 11.06828125 -5.57765625 11.5271875 -6 12 C-7 9 -7 9 -6.328125 6.9921875 C-5.97234375 6.29351562 -5.6165625 5.59484375 -5.25 4.875 C-4.90453125 4.17117187 -4.5590625 3.46734375 -4.203125 2.7421875 C-3 1 -3 1 0 0 Z " fill="#C5B6ED" transform="translate(190,145)"/>
<path d="M0 0 C0 3 0 3 -1.875 4.9375 C-2.57625 5.618125 -3.2775 6.29875 -4 7 C-5.23512079 9.13309192 -5.23512079 9.13309192 -6 11 C-6.66 11 -7.32 11 -8 11 C-8 11.66 -8 12.32 -8 13 C-8.66 13 -9.32 13 -10 13 C-10.66 14.32 -11.32 15.64 -12 17 C-12.99 17 -13.98 17 -15 17 C-10.24112683 11.05669617 -5.52859125 5.24507375 0 0 Z " fill="#D5B5E3" transform="translate(207,153)"/>
<path d="M0 0 C0.66 0.33 1.32 0.66 2 1 C1.4975516 5.39642348 0.02704059 7.7948982 -3 11 C-6 12 -6 12 -8.1875 11.0625 C-8.785625 10.711875 -9.38375 10.36125 -10 10 C-9.34 10 -8.68 10 -8 10 C-8 9.34 -8 8.68 -8 8 C-6.02 8 -4.04 8 -2 8 C-1.855625 6.865625 -1.71125 5.73125 -1.5625 4.5625 C-1 1 -1 1 0 0 Z " fill="#6EA8D7" transform="translate(261,420)"/>
<path d="M0 0 C1.32 0.33 2.64 0.66 4 1 C2.23867546 5.00301032 -0.26132483 8.6028977 -3 12 C-3.33 12 -3.66 12 -4 12 C-4.25 6.375 -4.25 6.375 -2 3 C-1.34 3 -0.68 3 0 3 C0 2.01 0 1.02 0 0 Z " fill="#77ACD6" transform="translate(426,214)"/>
<path d="M0 0 C1.9375 0.8125 1.9375 0.8125 4 2 C4.33 2.99 4.66 3.98 5 5 C5.66 5 6.32 5 7 5 C8.625 7.5 8.625 7.5 10 10 C7.6568787 9.74438677 5.32156597 9.40729228 3 9 C2.67 8.34 2.34 7.68 2 7 C2.66 7 3.32 7 4 7 C3.67 6.01 3.34 5.02 3 4 C2.34 3.67 1.68 3.34 1 3 C0.67 3.66 0.34 4.32 0 5 C-0.5625 3.0625 -0.5625 3.0625 -1 1 C-0.67 0.67 -0.34 0.34 0 0 Z " fill="#76AED8" transform="translate(395,125)"/>
<path d="M0 0 C0.66 0.99 1.32 1.98 2 3 C-2.455 8.94 -2.455 8.94 -7 15 C-7.33 14.34 -7.66 13.68 -8 13 C-7.06421005 10.64018187 -6.06652192 8.30368736 -5 6 C-4.01 6 -3.02 6 -2 6 C-2 4.35 -2 2.7 -2 1 C-1.34 0.67 -0.68 0.34 0 0 Z " fill="#DFB6E1" transform="translate(370,260)"/>
<path d="M0 0 C1.4216868 4.26506039 -0.34613318 7.20037743 -1.9375 11.1875 C-2.22818359 11.93708984 -2.51886719 12.68667969 -2.81835938 13.45898438 C-3.53725036 15.30924477 -4.26754653 17.15506648 -5 19 C-5.33 19 -5.66 19 -6 19 C-6.6875 16.25 -6.6875 16.25 -7 13 C-5.625 10.875 -5.625 10.875 -4 9 C-3.29485154 6.85266073 -3.29485154 6.85266073 -3 5 C-2.34 5 -1.68 5 -1 5 C-0.67 3.35 -0.34 1.7 0 0 Z " fill="#DCB5E1" transform="translate(280,307)"/>
<path d="M0 0 C1.32 0 2.64 0 4 0 C3.52797514 4.24822374 1.03344482 6.19989709 -2 9 C-2 8.34 -2 7.68 -2 7 C-2.99 7 -3.98 7 -5 7 C-5 6.34 -5 5.68 -5 5 C-4.34 5 -3.68 5 -3 5 C-2.67 4.01 -2.34 3.02 -2 2 C-1.67 2.66 -1.34 3.32 -1 4 C-0.34 4 0.32 4 1 4 C0.67 2.68 0.34 1.36 0 0 Z " fill="#70ACDA" transform="translate(409,236)"/>
<path d="M0 0 C1.4540625 0.0309375 1.4540625 0.0309375 2.9375 0.0625 C2.2775 1.3825 1.6175 2.7025 0.9375 4.0625 C0.2775 4.0625 -0.3825 4.0625 -1.0625 4.0625 C-1.330625 4.660625 -1.59875 5.25875 -1.875 5.875 C-3.04743467 8.03474808 -4.25619282 9.42040256 -6.0625 11.0625 C-5.7325 9.4125 -5.4025 7.7625 -5.0625 6.0625 C-4.4025 6.0625 -3.7425 6.0625 -3.0625 6.0625 C-3.3409375 4.8559375 -3.3409375 4.8559375 -3.625 3.625 C-3.769375 2.779375 -3.91375 1.93375 -4.0625 1.0625 C-3.0625 0.0625 -3.0625 0.0625 0 0 Z " fill="#80B3D9" transform="translate(438.0625,201.9375)"/>
<path d="M0 0 C0 0.99 0 1.98 0 3 C0.94978897 5.15028304 0.94978897 5.15028304 2 7 C1.01 7.33 0.02 7.66 -1 8 C-2.23375064 8.50987981 -3.46288115 9.03106163 -4.6875 9.5625 C-5.780625 10.036875 -6.87375 10.51125 -8 11 C-8 10.34 -8 9.68 -8 9 C-7.34 9 -6.68 9 -6 9 C-5.7525 8.443125 -5.505 7.88625 -5.25 7.3125 C-3.78393985 4.60028873 -1.97010529 2.36412635 0 0 Z " fill="#8DBEDF" transform="translate(73,158)"/>
<path d="M0 0 C0.66 0.33 1.32 0.66 2 1 C0.75865893 4.43755988 -0.4434923 7.34880683 -3 10 C-4.65501023 10.38707885 -6.32250115 10.72634603 -8 11 C-7.04454634 9.53977837 -6.08553322 8.08188532 -5.125 6.625 C-4.59132813 5.81289063 -4.05765625 5.00078125 -3.5078125 4.1640625 C-2 2 -2 2 0 0 Z " fill="#5F93CA" transform="translate(369,266)"/>
<path d="M0 0 C1.125 3.75 1.125 3.75 0 6 C-0.02988803 8.04946506 0.06607276 10.07774318 0.16015625 12.125 C0 14 0 14 -2 16 C-2.99 16 -3.98 16 -5 16 C-4.54548816 14.26982492 -4.08621143 12.54090123 -3.625 10.8125 C-3.36976563 9.84957031 -3.11453125 8.88664063 -2.8515625 7.89453125 C-2.05233704 5.17789793 -1.0968638 2.60862825 0 0 Z " fill="#DFB5DF" transform="translate(325,231)"/>
<path d="M0 0 C2.9375 1.3125 2.9375 1.3125 6 3 C6.33 3.99 6.66 4.98 7 6 C7.66 6.33 8.32 6.66 9 7 C9.72159424 8.64363134 10.39351421 10.31050386 11 12 C10.01 12 9.02 12 8 12 C6.39453125 10.3203125 6.39453125 10.3203125 4.8125 8.125 C4.28269531 7.40570313 3.75289063 6.68640625 3.20703125 5.9453125 C2 4 2 4 2 2 C1.34 2 0.68 2 0 2 C0 1.34 0 0.68 0 0 Z " fill="#81B2D6" transform="translate(78,226)"/>
<path d="M0 0 C2.475 0.99 2.475 0.99 5 2 C5 2.66 5 3.32 5 4 C5.99 4 6.98 4 8 4 C8.33 6.31 8.66 8.62 9 11 C8.01 10.34 7.02 9.68 6 9 C6 8.34 6 7.68 6 7 C5.34 7 4.68 7 4 7 C0 2.52941176 0 2.52941176 0 0 Z " fill="#7CAED7" transform="translate(214,395)"/>
<path d="M0 0 C1.32 0.99 2.64 1.98 4 3 C4.99 2.01 5.98 1.02 7 0 C6.44894091 3.9492568 5.61064629 7.34920174 4 11 C1.6870518 8.6870518 1.50419025 7.52095125 0.875 4.375 C0.70742187 3.55773437 0.53984375 2.74046875 0.3671875 1.8984375 C0.24601563 1.27195312 0.12484375 0.64546875 0 0 Z " fill="#D3B8E1" transform="translate(246,385)"/>
<path d="M0 0 C0.99 0 1.98 0 3 0 C4.38123963 1.96722008 5.71488126 3.96868328 7 6 C7.66 6.33 8.32 6.66 9 7 C9 8.65 9 10.3 9 12 C7.29115995 10.37660195 5.62553283 8.70680947 4 7 C4 6.34 4 5.68 4 5 C3.34 5 2.68 5 2 5 C1.34 3.35 0.68 1.7 0 0 Z " fill="#8DB9D9" transform="translate(190,365)"/>
<path d="M0 0 C1.65 0 3.3 0 5 0 C5 5.31440028 3.52524678 6.21680833 0 10 C-0.33 10 -0.66 10 -1 10 C-1 8.35 -1 6.7 -1 5 C-0.01 5 0.98 5 2 5 C2 4.34 2 3.68 2 3 C1.34 3 0.68 3 0 3 C0 2.01 0 1.02 0 0 Z " fill="#71AAD9" transform="translate(334,327)"/>
<path d="M0 0 C0.66 0 1.32 0 2 0 C1.46246904 6.18160604 -0.54582388 11.326858 -3 17 C-3.33 17 -3.66 17 -4 17 C-4 15.02 -4 13.04 -4 11 C-3.34 11 -2.68 11 -2 11 C-2 9.02 -2 7.04 -2 5 C-1.34 5 -0.68 5 0 5 C0 3.35 0 1.7 0 0 Z " fill="#6892CA" transform="translate(331,208)"/>
<path d="M0 0 C0.99 0 1.98 0 3 0 C1.68775452 3.93673644 0.08089673 6.22719294 -3 9 C-3.99 7.02 -4.98 5.04 -6 3 C-2.86650268 1.95550089 -2.01031744 2.06576355 1 3 C0.67 2.01 0.34 1.02 0 0 Z " fill="#67A2D6" transform="translate(295,379)"/>
<path d="M0 0 C1 4 1 4 1 6 C-1.8125 8.1875 -1.8125 8.1875 -5 10 C-5.99 9.67 -6.98 9.34 -8 9 C-5.36 6.03 -2.72 3.06 0 0 Z " fill="#7AAFD8" transform="translate(99,129)"/>
<path d="M0 0 C2.31 0.33 4.62 0.66 7 1 C7.33 1.99 7.66 2.98 8 4 C6.35 4.66 4.7 5.32 3 6 C0 2.25 0 2.25 0 0 Z " fill="#6BAADB" transform="translate(168,338)"/>
<path d="M0 0 C1.32 0.33 2.64 0.66 4 1 C2.69118353 2.66956087 1.37785174 4.33558304 0.0625 6 C-0.66839844 6.928125 -1.39929688 7.85625 -2.15234375 8.8125 C-2.76207031 9.534375 -3.37179687 10.25625 -4 11 C-4.33 11 -4.66 11 -5 11 C-5 9.02 -5 7.04 -5 5 C-4.01 5 -3.02 5 -2 5 C-1.34 3.35 -0.68 1.7 0 0 Z " fill="#DEB5DE" transform="translate(326,315)"/>
<path d="M0 0 C0.99 0.33 1.98 0.66 3 1 C3 1.66 3 2.32 3 3 C2.34 3 1.68 3 1 3 C0.7525 3.5775 0.505 4.155 0.25 4.75 C-1.16683317 7.3002997 -2.87627537 9.01785701 -5 11 C-5 9.02 -5 7.04 -5 5 C-3.35 4.67 -1.7 4.34 0 4 C0 2.68 0 1.36 0 0 Z " fill="#7CB0DA" transform="translate(374,281)"/>
<path d="M0 0 C0 4.24645065 -1.81750806 6.38524772 -4 10 C-4.66 10 -5.32 10 -6 10 C-6 10.66 -6 11.32 -6 12 C-7.98 12.99 -7.98 12.99 -10 14 C-8.43632643 10.47761953 -6.30504111 7.72876006 -3.875 4.75 C-3.15054687 3.85796875 -2.42609375 2.9659375 -1.6796875 2.046875 C-0.84824219 1.03367187 -0.84824219 1.03367187 0 0 Z " fill="#6690C7" transform="translate(338,305)"/>
<path d="M0 0 C2.56687367 3.8503105 1.83288724 5.58569763 1 10 C0.01 10.33 -0.98 10.66 -2 11 C-1.85892253 9.54119891 -1.71197585 8.08296449 -1.5625 6.625 C-1.48128906 5.81289062 -1.40007812 5.00078125 -1.31640625 4.1640625 C-1 2 -1 2 0 0 Z " fill="#5B94D1" transform="translate(308,231)"/>
<path d="M0 0 C0.66 0.99 1.32 1.98 2 3 C1.3503125 3.99 1.3503125 3.99 0.6875 5 C-1.02971547 8.0528275 -2.15237391 11.01730465 -3.25390625 14.328125 C-4 16 -4 16 -6 17 C-4.33846988 11.14340094 -2.52958084 5.5409866 0 0 Z " fill="#6B92C7" transform="translate(321,197)"/>
<path d="M0 0 C3 0 3 0 5.75 2.25 C8 5 8 5 7.8125 7.3125 C7.4103125 8.1478125 7.4103125 8.1478125 7 9 C4.03595495 6.19195732 1.55500981 3.81684226 0 0 Z " fill="#74A9D5" transform="translate(161,329)"/>
<path d="M0 0 C1.31225809 3.93677426 0.3393954 5.7794262 -0.9375 9.6875 C-1.50791016 11.45673828 -1.50791016 11.45673828 -2.08984375 13.26171875 C-2.39019531 14.16535156 -2.69054687 15.06898438 -3 16 C-4.09404518 12.66355017 -3.89669485 10.2934212 -3.1875 6.875 C-3.01605469 6.00617188 -2.84460938 5.13734375 -2.66796875 4.2421875 C-2 2 -2 2 0 0 Z " fill="#6790C7" transform="translate(282,344)"/>
<path d="M0 0 C0.99 0.66 1.98 1.32 3 2 C3 3.32 3 4.64 3 6 C1.35 6.66 -0.3 7.32 -2 8 C-2.33 6.35 -2.66 4.7 -3 3 C-2.01 2.67 -1.02 2.34 0 2 C0 1.34 0 0.68 0 0 Z " fill="#4C97CF" transform="translate(108,239)"/>
<path d="M0 0 C0.62390625 0.18691406 1.2478125 0.37382812 1.890625 0.56640625 C0.91533763 1.90257977 -0.06470819 3.23528135 -1.046875 4.56640625 C-1.59214844 5.30890625 -2.13742187 6.05140625 -2.69921875 6.81640625 C-3.39724609 7.68265625 -3.39724609 7.68265625 -4.109375 8.56640625 C-4.439375 8.56640625 -4.769375 8.56640625 -5.109375 8.56640625 C-5.47191276 3.12833978 -5.47191276 3.12833978 -3.859375 0.62890625 C-2.109375 -0.43359375 -2.109375 -0.43359375 0 0 Z " fill="#79B1D7" transform="translate(420.109375,226.43359375)"/>
<path d="M0 0 C0.5625 1.9375 0.5625 1.9375 1 4 C0.67 4.33 0.34 4.66 0 5 C-0.36760731 7.32817964 -0.70241581 9.6618385 -1 12 C-1.99 12.33 -2.98 12.66 -4 13 C-4.33 13.66 -4.66 14.32 -5 15 C-4.37321829 11.33827525 -3.35548154 8.1181005 -1.9375 4.6875 C-1.39416016 3.36298828 -1.39416016 3.36298828 -0.83984375 2.01171875 C-0.56269531 1.34785156 -0.28554688 0.68398437 0 0 Z " fill="#6590C9" transform="translate(314,216)"/>
<path d="M0 0 C0.66 0.99 1.32 1.98 2 3 C-0.0586217 6.08793255 -0.8553312 6.47838607 -4 8 C-4.33 8.66 -4.66 9.32 -5 10 C-5.66 9.67 -6.32 9.34 -7 9 C-4.69 6.03 -2.38 3.06 0 0 Z " fill="#6292CF" transform="translate(302,350)"/>
<path d="M0 0 C0.99 0 1.98 0 3 0 C5.38314183 3.20807554 6.43768609 6.06380262 7 10 C4.66666667 7.66666667 2.33333333 5.33333333 0 3 C0 2.01 0 1.02 0 0 Z " fill="#81B1D4" transform="translate(151,316)"/>
<path d="M0 0 C0.33 0.66 0.66 1.32 1 2 C2.32 1.34 3.64 0.68 5 0 C3.55746343 3.36591866 1.66735273 5.51047079 -1 8 C-1.66 6.35 -2.32 4.7 -3 3 C-2.01 2.01 -1.02 1.02 0 0 Z " fill="#5A92D0" transform="translate(109,137)"/>
<path d="M0 0 C1.28497537 3.85492611 0.4052209 5.40346836 -0.9375 9.1875 C-1.31777344 10.27417969 -1.69804687 11.36085938 -2.08984375 12.48046875 C-2.39019531 13.31191406 -2.69054687 14.14335937 -3 15 C-3.33 15 -3.66 15 -4 15 C-4 12.36 -4 9.72 -4 7 C-3.34 7 -2.68 7 -2 7 C-2 5.35 -2 3.7 -2 2 C-1.34 2 -0.68 2 0 2 C0 1.34 0 0.68 0 0 Z " fill="#D9B7DF" transform="translate(263,353)"/>
<path d="M0 0 C6.64615385 3.32307692 6.64615385 3.32307692 8.4375 6.75 C8.623125 7.4925 8.80875 8.235 9 9 C8.01 9 7.02 9 6 9 C6 8.34 6 7.68 6 7 C5.34 7 4.68 7 4 7 C0 2.52941176 0 2.52941176 0 0 Z " fill="#88B4D6" transform="translate(173,344)"/>
<path d="M0 0 C0.66 0 1.32 0 2 0 C0.34832443 3.5786304 -1.78286492 6.74820188 -4 10 C-4.66 8.68 -5.32 7.36 -6 6 C-5.38125 5.7525 -4.7625 5.505 -4.125 5.25 C-1.64931313 3.79371361 -1.04874998 2.62187494 0 0 Z " fill="#DCB5DB" transform="translate(348,289)"/>
<path d="M0 0 C0 3.63305246 -1.22741623 4.89727521 -3.5546875 7.5703125 C-5.48602174 9.48076745 -7.59335011 10.76229434 -10 12 C-8.43873668 8.16780823 -5.97133075 5.82638778 -3 3 C-2.401875 2.401875 -1.80375 1.80375 -1.1875 1.1875 C-0.795625 0.795625 -0.40375 0.40375 0 0 Z " fill="#D4B7E4" transform="translate(229,128)"/>
<path d="M0 0 C1.32 0.33 2.64 0.66 4 1 C2.87895467 2.31587941 1.75303035 3.62760353 0.625 4.9375 C-0.00148437 5.66839844 -0.62796875 6.39929688 -1.2734375 7.15234375 C-3 9 -3 9 -5 10 C-5 9.01 -5 8.02 -5 7 C-4.34 7 -3.68 7 -3 7 C-3 6.34 -3 5.68 -3 5 C-2.34 4.67 -1.68 4.34 -1 4 C-0.34786708 1.97536745 -0.34786708 1.97536745 0 0 Z " fill="#BEB8F2" transform="translate(204,128)"/>
<path d="M0 0 C0.33 1.32 0.66 2.64 1 4 C-0.375 5.625 -0.375 5.625 -2 7 C-2.33 7.66 -2.66 8.32 -3 9 C-4.32 8.67 -5.64 8.34 -7 8 C-4.69 5.36 -2.38 2.72 0 0 Z " fill="#8DB7D6" transform="translate(115,111)"/>
<path d="M0 0 C0.33 0.99 0.66 1.98 1 3 C1.66 3 2.32 3 3 3 C2.34 4.65 1.68 6.3 1 8 C0.34 7.67 -0.32 7.34 -1 7 C-1 6.34 -1 5.68 -1 5 C-1.66 5 -2.32 5 -3 5 C-1.125 1.125 -1.125 1.125 0 0 Z " fill="#5C95CD" transform="translate(275,383)"/>
<path d="M0 0 C1.23593891 3.70781672 0.5678132 4.67510253 -0.9375 8.1875 C-1.31777344 9.08855469 -1.69804687 9.98960937 -2.08984375 10.91796875 C-2.54037109 11.94857422 -2.54037109 11.94857422 -3 13 C-3.81753595 9.86278889 -4.40690698 7.25525585 -4 4 C-2 1.6875 -2 1.6875 0 0 Z " fill="#D6B6DF" transform="translate(268,340)"/>
<path d="M0 0 C0.33 0 0.66 0 1 0 C1.33 2.31 1.66 4.62 2 7 C1.01 7.66 0.02 8.32 -1 9 C-1.33 9.99 -1.66 10.98 -2 12 C-2.66 12 -3.32 12 -4 12 C-2.66666667 8 -1.33333333 4 0 0 Z " fill="#DDB4DF" transform="translate(316,256)"/>
<path d="M0 0 C1.98 0 3.96 0 6 0 C6.33 2.31 6.66 4.62 7 7 C5.83040013 6.02433888 4.66438823 5.044375 3.5 4.0625 C2.8503125 3.51722656 2.200625 2.97195312 1.53125 2.41015625 C1.0259375 1.94480469 0.520625 1.47945313 0 1 C0 0.67 0 0.34 0 0 Z " fill="#94DDFD" transform="translate(269,103)"/>
<path d="M0 0 C5.99725275 2.10714286 5.99725275 2.10714286 8 5 C7.6875 7.1875 7.6875 7.1875 7 9 C6.67 8.01 6.34 7.02 6 6 C5.34 6 4.68 6 4 6 C2.61061923 4.03852126 1.2739589 2.03833424 0 0 Z " fill="#8DB9D8" transform="translate(223,407)"/>
<path d="M0 0 C0.99 0 1.98 0 3 0 C2.67 1.32 2.34 2.64 2 4 C1.34 4 0.68 4 0 4 C0 5.65 0 7.3 0 9 C-0.99 8.67 -1.98 8.34 -3 8 C-1.125 1.125 -1.125 1.125 0 0 Z " fill="#4D97D4" transform="translate(357,298)"/>
<path d="M0 0 C1.65 0 3.3 0 5 0 C4.04663979 1.31611677 3.08714226 2.62778961 2.125 3.9375 C1.59132813 4.66839844 1.05765625 5.39929688 0.5078125 6.15234375 C-1 8 -1 8 -3 9 C-3 8.01 -3 7.02 -3 6 C-2.34 5.67 -1.68 5.34 -1 5 C-0.34444881 2.47266765 -0.34444881 2.47266765 0 0 Z " fill="#DBB6DC" transform="translate(354,279)"/>
<path d="M0 0 C0.66 0 1.32 0 2 0 C3.5078125 1.53125 3.5078125 1.53125 5.125 3.5 C5.66382813 4.1496875 6.20265625 4.799375 6.7578125 5.46875 C7.16773438 5.9740625 7.57765625 6.479375 8 7 C7.67 7.66 7.34 8.32 7 9 C4.13998967 7.71792641 1.92960588 6.50848764 0 4 C0 2.68 0 1.36 0 0 Z " fill="#8DBBDC" transform="translate(377,104)"/>
<path d="M0 0 C1 4 1 4 0.0625 6.25 C-0.4634375 7.11625 -0.4634375 7.11625 -1 8 C-2.65 8 -4.3 8 -6 8 C-4.02 5.36 -2.04 2.72 0 0 Z " fill="#88BADF" transform="translate(128,96)"/>
<path d="M0 0 C5.4389165 -0.21755666 9.87080814 -0.10428384 15 2 C15 2.33 15 2.66 15 3 C9.5814234 3.22577402 5.22512279 2.46670113 0 1 C0 0.67 0 0.34 0 0 Z " fill="#B6CFE3" transform="translate(349,86)"/>
<path d="M0 0 C1.65 0 3.3 0 5 0 C3.70700306 2.88437779 2.34058637 4.87219421 0 7 C0 4.69 0 2.38 0 0 Z " fill="#81B2D9" transform="translate(384,267)"/>
<path d="M0 0 C-1.44253657 3.36591866 -3.33264727 5.51047079 -6 8 C-6.66 7.34 -7.32 6.68 -8 6 C-7.01 5.34 -6.02 4.68 -5 4 C-4.67 3.01 -4.34 2.02 -4 1 C-2 0 -2 0 0 0 Z " fill="#7AACD9" transform="translate(401,252)"/>
<path d="M0 0 C1.37432457 3.81756824 0.67975039 7.07255329 0 11 C-2 9 -2 9 -2.01171875 7.08984375 C-1.11111111 1.11111111 -1.11111111 1.11111111 0 0 Z " fill="#9FC5DE" transform="translate(52,182)"/>
<path d="M0 0 C4 0 4 0 7 2 C6.34 3.32 5.68 4.64 5 6 C3.31237149 4.3545622 1.6459651 2.68711423 0 1 C0 0.67 0 0.34 0 0 Z " fill="#6496D4" transform="translate(293,153)"/>
<path d="M0 0 C0.33 0.99 0.66 1.98 1 3 C-0.81725675 5.82684384 -2.03937946 7.65310925 -5.25 8.8125 C-5.8275 8.874375 -6.405 8.93625 -7 9 C-6.34 7.68 -5.68 6.36 -5 5 C-4.34 5 -3.68 5 -3 5 C-3 4.34 -3 3.68 -3 3 C-2.34 3 -1.68 3 -1 3 C-0.67 2.01 -0.34 1.02 0 0 Z " fill="#8DB9D9" transform="translate(107,120)"/>
<path d="M0 0 C0.66 0.33 1.32 0.66 2 1 C2 1.66 2 2.32 2 3 C2.66 3 3.32 3 4 3 C2.89131683 5.21736634 1.50559539 7.03617993 0 9 C-0.99 8.67 -1.98 8.34 -3 8 C-2.505 7.05125 -2.01 6.1025 -1.5 5.125 C0.14424369 2.27721834 0.14424369 2.27721834 0 0 Z " fill="#6EABDB" transform="translate(388,116)"/>
<path d="M0 0 C-1.47692308 4.67692308 -1.47692308 4.67692308 -4.125 6.3125 C-5.053125 6.6528125 -5.053125 6.6528125 -6 7 C-6 6.34 -6 5.68 -6 5 C-5.34 5 -4.68 5 -4 5 C-4.33 3.68 -4.66 2.36 -5 1 C-2 0 -2 0 0 0 Z " fill="#78ACD6" transform="translate(311,363)"/>
<path d="M0 0 C0 3 0 3 -2.5 5.6875 C-3.325 6.450625 -4.15 7.21375 -5 8 C-5 5.69 -5 3.38 -5 1 C-3.35 0.67 -1.7 0.34 0 0 Z " fill="#DEB5DE" transform="translate(405,219)"/>
<path d="M0 0 C0.66 0 1.32 0 2 0 C3.2890625 1.53125 3.2890625 1.53125 4.625 3.5 C5.07101562 4.1496875 5.51703125 4.799375 5.9765625 5.46875 C6.31429688 5.9740625 6.65203125 6.479375 7 7 C5.35 7.33 3.7 7.66 2 8 C1.34 5.36 0.68 2.72 0 0 Z " fill="#8BB8D8" transform="translate(409,140)"/>
<path d="M0 0 C0.66 0 1.32 0 2 0 C2.33 0.99 2.66 1.98 3 3 C1.59554165 5.2636564 -0.1967913 7.0208685 -2 9 C-2.33 7.68 -2.66 6.36 -3 5 C-1.68 4.67 -0.36 4.34 1 4 C0.67 2.68 0.34 1.36 0 0 Z " fill="#5993CD" transform="translate(234,116)"/>
<path d="M0 0 C0.33 0 0.66 0 1 0 C1.6875 2.8125 1.6875 2.8125 2 6 C0.6875 7.875 0.6875 7.875 -1 9 C-1.66 9 -2.32 9 -3 9 C-2.01 6.03 -1.02 3.06 0 0 Z " fill="#6391C8" transform="translate(268,343)"/>
<path d="M0 0 C1.98 0.495 1.98 0.495 4 1 C2.63016497 4.16115776 2.0109362 4.9927092 -1 7 C-0.67 4.69 -0.34 2.38 0 0 Z " fill="#E1B4DD" transform="translate(332,306)"/>
<path d="M0 0 C3 1.8125 3 1.8125 6 4 C6 4.99 6 5.98 6 7 C6.66 7.33 7.32 7.66 8 8 C7.01 8 6.02 8 5 8 C0 2.65116279 0 2.65116279 0 0 Z " fill="#8DBDDF" transform="translate(89,240)"/>
<path d="M0 0 C-1.39332574 3.36720387 -2.9789286 4.9859524 -6 7 C-5.6875 4.625 -5.6875 4.625 -5 2 C-2 0 -2 0 0 0 Z " fill="#6292CB" transform="translate(217,141)"/>
<path d="M0 0 C-1.39332574 3.36720387 -2.9789286 4.9859524 -6 7 C-6.1875 4.625 -6.1875 4.625 -6 2 C-3 0 -3 0 0 0 Z " fill="#C3B8ED" transform="translate(214,121)"/>
<path d="M0 0 C2.1875 0.3125 2.1875 0.3125 4 1 C2.35 2.98 0.7 4.96 -1 7 C-1.66 5.68 -2.32 4.36 -3 3 C-1.75 1.4375 -1.75 1.4375 0 0 Z " fill="#6093CE" transform="translate(243,107)"/>
<path d="M0 0 C0.33 0 0.66 0 1 0 C1 2.97 1 5.94 1 9 C0.67 8.01 0.34 7.02 0 6 C-0.99 5.67 -1.98 5.34 -3 5 C-2.03114628 3.31503702 -1.03013277 1.64821244 0 0 Z " fill="#4D99CF" transform="translate(332,328)"/>
<path d="M0 0 C3.40320742 1.01176437 4.75725331 1.64843582 6.8125 4.625 C7.204375 5.40875 7.59625 6.1925 8 7 C7.01 7 6.02 7 5 7 C3.61328125 5.46875 3.61328125 5.46875 2.3125 3.5 C1.87550781 2.8503125 1.43851563 2.200625 0.98828125 1.53125 C0.49908203 0.77328125 0.49908203 0.77328125 0 0 Z " fill="#90BBDA" transform="translate(138,302)"/>
<path d="M0 0 C3.36720387 1.39332574 4.9859524 2.9789286 7 6 C6.01 6 5.02 6 4 6 C4 5.34 4 4.68 4 4 C2.35 3.67 0.7 3.34 -1 3 C-0.67 2.01 -0.34 1.02 0 0 Z " fill="#80B4D8" transform="translate(420,153)"/>
<path d="M0 0 C0.99 0.99 1.98 1.98 3 3 C2.34 3 1.68 3 1 3 C1.33 4.65 1.66 6.3 2 8 C0.35 6.35 -1.3 4.7 -3 3 C-2.01 2.01 -1.02 1.02 0 0 Z " fill="#5D94CE" transform="translate(291,145)"/>
<path d="M0 0 C0.66 0.33 1.32 0.66 2 1 C1.3125 3.4375 1.3125 3.4375 0 6 C-2.625 6.8125 -2.625 6.8125 -5 7 C-3.35 4.69 -1.7 2.38 0 0 Z " fill="#97C1DF" transform="translate(134,89)"/>
<path d="M0 0 C0.66 0.33 1.32 0.66 2 1 C1.50168276 4.68754757 0.89932357 6.60490662 -2 9 C-2.20140476 5.37471432 -1.85776765 3.13498292 0 0 Z " fill="#78AED8" transform="translate(261,420)"/>
<path d="M0 0 C0.99 0.33 1.98 0.66 3 1 C1.25 5.875 1.25 5.875 -1 7 C-1.625 4.625 -1.625 4.625 -2 2 C-1.34 1.34 -0.68 0.68 0 0 Z " fill="#78ADD6" transform="translate(442,195)"/>
<path d="M0 0 C2.5 1.8125 2.5 1.8125 5 4 C5 4.99 5 5.98 5 7 C3.35 7 1.7 7 0 7 C0.66 6.67 1.32 6.34 2 6 C1.34 4.02 0.68 2.04 0 0 Z " fill="#D4B4E1" transform="translate(309,173)"/>
<path d="M0 0 C0.598125 0.309375 1.19625 0.61875 1.8125 0.9375 C4.08956772 2.10209704 4.08956772 2.10209704 7 3 C6.67 4.32 6.34 5.64 6 7 C1.125 2.25 1.125 2.25 0 0 Z " fill="#539DCB" transform="translate(385,136)"/>
<path d="M0 0 C1.875 0.3125 1.875 0.3125 4 1 C6 4 6 4 6 7 C1.125 3.375 1.125 3.375 0 0 Z " fill="#8DB8D8" transform="translate(204,383)"/>
<path d="M0 0 C0.99 0 1.98 0 3 0 C4.0625 1.8125 4.0625 1.8125 5 4 C4.67 4.99 4.34 5.98 4 7 C0 2.25 0 2.25 0 0 Z " fill="#8DD8F9" transform="translate(226,383)"/>
<path d="M0 0 C0.66 0.33 1.32 0.66 2 1 C0.35 2.98 -1.3 4.96 -3 7 C-3.33 5.68 -3.66 4.36 -4 3 C-2.68 2.01 -1.36 1.02 0 0 Z " fill="#D6B4E3" transform="translate(303,346)"/>
<path d="M0 0 C0.66 0 1.32 0 2 0 C5.22265625 5.2734375 5.22265625 5.2734375 6 7 C5.67 7.66 5.34 8.32 5 9 C3.02 6.36 1.04 3.72 -1 1 C-0.67 0.67 -0.34 0.34 0 0 Z " fill="#93DDFA" transform="translate(181,327)"/>
<path d="M0 0 C0.99 0 1.98 0 3 0 C1.75023244 3.65316671 1.32901247 4.78065836 -2 7 C-2.33 6.01 -2.66 5.02 -3 4 C-2.01 4 -1.02 4 0 4 C0 2.68 0 1.36 0 0 Z " fill="#7AB0D7" transform="translate(342,321)"/>
<path d="M0 0 C2.31 0.66 4.62 1.32 7 2 C6.67 3.65 6.34 5.3 6 7 C1.125 2.25 1.125 2.25 0 0 Z " fill="#8CB8DD" transform="translate(100,255)"/>
<path d="M0 0 C0.33 0 0.66 0 1 0 C0.25 7.75 0.25 7.75 -2 10 C-2 7.69 -2 5.38 -2 3 C-1.34 3 -0.68 3 0 3 C0 2.01 0 1.02 0 0 Z " fill="#DCB7DB" transform="translate(299,252)"/>
<path d="M0 0 C2.475 0.495 2.475 0.495 5 1 C4.67 2.65 4.34 4.3 4 6 C3.34 6 2.68 6 2 6 C0 3 0 3 0 0 Z " fill="#5794CD" transform="translate(330,202)"/>
<path d="M0 0 C0.99 0.66 1.98 1.32 3 2 C3 2.66 3 3.32 3 4 C0.36 4 -2.28 4 -5 4 C-4.34 3.34 -3.68 2.68 -3 2 C-2.34 2.33 -1.68 2.66 -1 3 C-0.67 2.01 -0.34 1.02 0 0 Z " fill="#8ED6FB" transform="translate(421,177)"/>
<path d="M0 0 C1.32 0.33 2.64 0.66 4 1 C2.35 2.98 0.7 4.96 -1 7 C-1 4.37886292 -0.68707555 2.49064888 0 0 Z " fill="#6291CB" transform="translate(193,164)"/>
<path d="M0 0 C0 0.99 0 1.98 0 3 C0.94978897 5.15028304 0.94978897 5.15028304 2 7 C0.35 7 -1.3 7 -3 7 C-2.25 2.25 -2.25 2.25 0 0 Z " fill="#86B8DB" transform="translate(73,158)"/>
<path d="M0 0 C1.32 0 2.64 0 4 0 C4.33 1.98 4.66 3.96 5 6 C3.2925002 4.71937515 1.62626404 3.38232443 0 2 C0 1.34 0 0.68 0 0 Z " fill="#5D92C8" transform="translate(282,140)"/>
</svg>
